<?xml version="1.0" encoding="UTF-8" standalone="no"?>
<svg
   viewBox="0 0 307.20001 485.66929"
   width="81.280006mm"
   height="128.5mm"
   version="1.1"
   id="svg5"
   xmlns="http://www.w3.org/2000/svg"
   xmlns:svg="http://www.w3.org/2000/svg">
  <defs
     id="defs1" />
  <g
     transform="translate(-902.87148,-297.21964)"
     id="g5">
    <g
       id="g4"
       transform="matrix(1.0034568,0,0,1,-3.1210433,-0.64402784)">
      <g
         id="g1"
         transform="matrix(0.9715842,0,0,1,56.701035,1.2880551)">
        <path
           d="m 1186.0137,296.57561 c 0,0 -315.09542,0 -315.09542,0 0,0 0,485.66924 0,485.66924 0,0 315.09542,0 315.09542,0 z"
           fill="#8ac68a"
           id="path1"
           style="fill:#000000;stroke-width:1.16023" />
      </g>
    </g>
  </g>
  <rect
     style="fill:#aade87;stroke-width:1.00222"
     id="rect7"
     width="288"
     height="461.10236"
     x="9.5546513"
     y="12.146927"
     ry="41.454113" />
  <rect
     style="fill:#c6e9af;stroke:#f9f9f9;stroke-width:0.99989"
     id="rect8"
     width="165.82845"
     height="16.397528"
     x="70.685776"
     y="15.51405" />
  <path
     d="m 145.54898,27.570827 h -1.16296 v -7.516814 l -2.43166,5.114715 h -0.69307 l -2.41404,-5.114715 v 7.516814 h -1.0866 v -8.723722 h 1.58586 l 2.3318,4.856928 2.25545,-4.856928 h 1.61522 z m 3.44778,-7.639847 h -1.2452 v -1.142463 h 1.2452 z m -0.0705,7.639847 h -1.10423 v -6.544256 h 1.10423 z m 7.86469,0 h -1.39203 l -1.86193,-2.513417 -1.87366,2.513417 h -1.2863 l 2.56086,-3.26334 -2.53737,-3.280916 h 1.39203 l 1.85017,2.472404 1.85604,-2.472404 h 1.29219 l -2.5785,3.222328 z m 6.78982,-3.157882 h -4.83393 q 0,0.603454 0.18208,1.05458 0.18208,0.445267 0.49925,0.732347 0.30542,0.281222 0.72245,0.421833 0.42289,0.140611 0.92801,0.140611 0.6696,0 1.34506,-0.263646 0.68133,-0.269503 0.96913,-0.52729 h 0.0588 v 1.20105 q -0.55798,0.23435 -1.13946,0.392538 -0.58148,0.158187 -1.2217,0.158187 -1.63286,0 -2.54913,-0.878817 -0.91627,-0.884676 -0.91627,-2.507557 0,-1.605306 0.87516,-2.548569 0.88103,-0.943263 2.31418,-0.943263 1.32742,0 2.04399,0.773358 0.72245,0.77336 0.72245,2.197042 z m -1.07486,-0.843664 q -0.006,-0.8671 -0.44051,-1.341661 -0.42877,-0.474561 -1.3098,-0.474561 -0.88692,0 -1.41553,0.521432 -0.52275,0.521431 -0.59323,1.29479 z m 6.84269,-1.341661 h -0.0588 q -0.24669,-0.05859 -0.48164,-0.08203 -0.22907,-0.02929 -0.54623,-0.02929 -0.511,0 -0.98676,0.228492 -0.47575,0.222634 -0.91627,0.580019 v 4.646012 h -1.10423 v -6.544256 h 1.10423 v 0.966699 q 0.65784,-0.527291 1.15709,-0.744066 0.50512,-0.222633 1.02787,-0.222633 0.2878,0 0.41703,0.01758 0.12921,0.01171 0.38764,0.05273 z"
     id="text8"
     style="font-size:12.0139px;fill:#24221c;stroke:#24221c;stroke-width:1.00116"
     aria-label="Mixer" />
</svg>
