<?xml version="1.0" encoding="UTF-8" standalone="no"?>
<svg
   viewBox="0 0 307.20001 485.66929"
   width="81.280006mm"
   height="128.5mm"
   version="1.1"
   id="svg5"
   sodipodi:docname="KI1H-MIX.svg"
   inkscape:version="1.4.2 (ebf0e940, 2025-05-08)"
   xmlns:inkscape="http://www.inkscape.org/namespaces/inkscape"
   xmlns:sodipodi="http://sodipodi.sourceforge.net/DTD/sodipodi-0.dtd"
   xmlns:xlink="http://www.w3.org/1999/xlink"
   xmlns="http://www.w3.org/2000/svg"
   xmlns:svg="http://www.w3.org/2000/svg">
  <sodipodi:namedview
     id="namedview1"
     pagecolor="#ffffff"
     bordercolor="#000000"
     borderopacity="0.25"
     inkscape:showpageshadow="2"
     inkscape:pageopacity="0.0"
     inkscape:pagecheckerboard="0"
     inkscape:deskcolor="#d1d1d1"
     inkscape:document-units="mm"
     inkscape:zoom="3.7743839"
     inkscape:cx="121.60925"
     inkscape:cy="82.662498"
     inkscape:window-width="1728"
     inkscape:window-height="1055"
     inkscape:window-x="0"
     inkscape:window-y="34"
     inkscape:window-maximized="1"
     inkscape:current-layer="svg5" />
  <defs
     id="defs1">
    <linearGradient
       id="linearGradient22"
       inkscape:collect="always">
      <stop
         style="stop-color:#3f4f4b;stop-opacity:0.94347829;"
         offset="0.45198676"
         id="stop22" />
      <stop
         style="stop-color:#e6f2f8;stop-opacity:0.34565216;"
         offset="0.56622517"
         id="stop23" />
    </linearGradient>
    <linearGradient
       inkscape:collect="always"
       xlink:href="#linearGradient22"
       id="linearGradient23"
       x1="154.28725"
       y1="353.28537"
       x2="154.28725"
       y2="82.207581"
       gradientUnits="userSpaceOnUse"
       gradientTransform="matrix(1.0048788,0,0,0.99998481,-0.86625835,0.00329487)" />
  </defs>
  <g
     transform="translate(-902.87148,-297.21964)"
     id="g5">
    <g
       id="g4"
       transform="matrix(1.0034568,0,0,1,-3.1210433,-0.64402784)">
      <g
         id="g1"
         transform="matrix(0.9715842,0,0,1,56.701035,1.2880551)">
        <path
           d="m 1186.0137,296.57561 c 0,0 -315.09542,0 -315.09542,0 0,0 0,485.66924 0,485.66924 0,0 315.09542,0 315.09542,0 z"
           fill="#8ac68a"
           id="path1"
           style="fill:#000000;stroke-width:1.16023" />
      </g>
    </g>
  </g>
  <rect
     style="fill:#aade87;stroke-width:1.00222"
     id="rect7"
     width="288"
     height="461.10236"
     x="9.5546513"
     y="12.146927"
     ry="41.454113" />
  <rect
     style="fill:#c6e9af;stroke:#f9f9f9;stroke-width:0.99989"
     id="rect8"
     width="165.82845"
     height="16.397528"
     x="70.685776"
     y="15.51405" />
  <path
     d="m 145.54898,27.570827 h -1.16296 v -7.516814 l -2.43166,5.114715 h -0.69307 l -2.41404,-5.114715 v 7.516814 h -1.0866 v -8.723722 h 1.58586 l 2.3318,4.856928 2.25545,-4.856928 h 1.61522 z m 3.44778,-7.639847 h -1.2452 v -1.142463 h 1.2452 z m -0.0705,7.639847 h -1.10423 v -6.544256 h 1.10423 z m 7.86469,0 h -1.39203 l -1.86193,-2.513417 -1.87366,2.513417 h -1.2863 l 2.56086,-3.26334 -2.53737,-3.280916 h 1.39203 l 1.85017,2.472404 1.85604,-2.472404 h 1.29219 l -2.5785,3.222328 z m 6.78982,-3.157882 h -4.83393 q 0,0.603454 0.18208,1.05458 0.18208,0.445267 0.49925,0.732347 0.30542,0.281222 0.72245,0.421833 0.42289,0.140611 0.92801,0.140611 0.6696,0 1.34506,-0.263646 0.68133,-0.269503 0.96913,-0.52729 h 0.0588 v 1.20105 q -0.55798,0.23435 -1.13946,0.392538 -0.58148,0.158187 -1.2217,0.158187 -1.63286,0 -2.54913,-0.878817 -0.91627,-0.884676 -0.91627,-2.507557 0,-1.605306 0.87516,-2.548569 0.88103,-0.943263 2.31418,-0.943263 1.32742,0 2.04399,0.773358 0.72245,0.77336 0.72245,2.197042 z m -1.07486,-0.843664 q -0.006,-0.8671 -0.44051,-1.341661 -0.42877,-0.474561 -1.3098,-0.474561 -0.88692,0 -1.41553,0.521432 -0.52275,0.521431 -0.59323,1.29479 z m 6.84269,-1.341661 h -0.0588 q -0.24669,-0.05859 -0.48164,-0.08203 -0.22907,-0.02929 -0.54623,-0.02929 -0.511,0 -0.98676,0.228492 -0.47575,0.222634 -0.91627,0.580019 v 4.646012 h -1.10423 v -6.544256 h 1.10423 v 0.966699 q 0.65784,-0.527291 1.15709,-0.744066 0.50512,-0.222633 1.02787,-0.222633 0.2878,0 0.41703,0.01758 0.12921,0.01171 0.38764,0.05273 z"
     id="text8"
     style="font-size:12.0139px;fill:#24221c;stroke:#24221c;stroke-width:1.00116"
     aria-label="Mixer" />
  <rect
     style="fill:#495e5a;fill-opacity:1;stroke:#24221c;stroke-width:1.14445"
     id="rect1"
     width="271.25366"
     height="75.645782"
     x="18.547657"
     y="58.418663"
     ry="14.671457" />
  <rect
     style="fill:url(#linearGradient23);stroke:#24221c;stroke-width:0.939513"
     id="rect2"
     width="271.45859"
     height="150.43791"
     x="18.44519"
     y="142.52756"
     ry="17.016733" />
  <rect
     style="fill:#e6f2f8;fill-opacity:0.447761;stroke:#24221c;stroke-width:1.47991"
     id="rect3"
     width="270.91821"
     height="98.769211"
     x="18.715389"
     y="301.59628"
     ry="16.189457" />
  <rect
     style="fill:#e6f2f8;fill-opacity:0.367537;stroke:#24221c;stroke-width:1.05473"
     id="rect4"
     width="271.34338"
     height="43.855484"
     x="18.502796"
     y="409.05399"
     ry="21.927742" />
  <path
     d="M 67.566559,55.504687 H 66.547028 V 44.090625 h 1.019531 z"
     id="text26"
     style="stroke:#24221c"
     aria-label="|" />
  <path
     d="m 237.74528,55.341423 h -1.01953 V 43.92736 h 1.01953 z"
     id="text37"
     style="stroke:#24221c"
     aria-label="|" />
  <path
     d="m 243.1945,55.341423 h -1.01953 V 43.92736 h 1.01953 z"
     id="text36"
     style="fill:#000000;fill-opacity:0;stroke:#24221c"
     aria-label="|" />
  <path
     d="m 156.37758,52.547665 -0.375,0.644531 -2.1211,-1.248047 0.0352,2.109375 h -0.75586 l 0.0293,-2.109375 -2.11524,1.253906 -0.38086,-0.644531 2.23243,-1.212891 -2.23243,-1.21289 0.38086,-0.644531 2.1211,1.248046 -0.0352,-2.103515 h 0.75586 l -0.041,2.103515 2.12696,-1.242187 0.375,0.644531 -2.22656,1.201172 z"
     id="text38"
     style="stroke:#24221c"
     aria-label="*" />
  <rect
     style="fill:#c7c7c7;fill-opacity:0.143657;stroke:#24221c;stroke-width:0.945259"
     id="rect35"
     width="271.45288"
     height="36.404034"
     x="18.448063"
     y="92.605125"
     ry="16.011881"
     rx="18.828939" />
</svg>
