<?xml version="1.0" encoding="UTF-8" standalone="no"?>
<svg
   viewBox="0 0 60.959999 128.5"
   width="60.959999mm"
   height="128.5mm"
   version="1.1"
   id="svg5"
   sodipodi:docname="KI1H-VCO.svg"
   inkscape:version="1.4.2 (ebf0e940, 2025-05-08)"
   xmlns:inkscape="http://www.inkscape.org/namespaces/inkscape"
   xmlns:sodipodi="http://sodipodi.sourceforge.net/DTD/sodipodi-0.dtd"
   xmlns="http://www.w3.org/2000/svg"
   xmlns:svg="http://www.w3.org/2000/svg">
  <sodipodi:namedview
     id="namedview1"
     pagecolor="#505050"
     bordercolor="#ffffff"
     borderopacity="1"
     inkscape:showpageshadow="0"
     inkscape:pageopacity="0"
     inkscape:pagecheckerboard="1"
     inkscape:deskcolor="#505050"
     inkscape:document-units="mm"
     inkscape:zoom="2.1584964"
     inkscape:cx="170.48905"
     inkscape:cy="149.87284"
     inkscape:window-width="1728"
     inkscape:window-height="1056"
     inkscape:window-x="0"
     inkscape:window-y="61"
     inkscape:window-maximized="0"
     inkscape:current-layer="svg5" />
  <defs
     id="defs1" />
  <g
     transform="matrix(0.19859597,0,0,0.26483257,-179.33098,-78.713438)"
     id="g5">
    <g
       id="g4"
       transform="matrix(1.0034568,0,0,1,-3.1210433,-0.64402784)">
      <g
         id="g1"
         transform="matrix(0.9715842,0,0,1,56.701035,1.2880551)">
        <path
           d="m 1186.0137,296.57561 c 0,0 -315.09542,0 -315.09542,0 0,0 0,485.66924 0,485.66924 0,0 315.09542,0 315.09542,0 z"
           fill="#8ac68a"
           id="path1"
           style="fill:#000000;stroke-width:1.16023" />
      </g>
    </g>
  </g>
  <rect
     style="fill:#aade87;stroke-width:0.227523"
     id="rect7"
     width="56.046471"
     height="122.11491"
     x="2.4567642"
     y="3.2169018"
     ry="10.978398" />
  <rect
     style="fill:#c6e9af;stroke:#f9f9f9;stroke-width:0.229759"
     id="rect8"
     width="32.797256"
     height="4.3776441"
     x="14.081371"
     y="4.0911036" />
  <path
     d="m 17.519502,7.1340804 q -0.08555,0.037239 -0.155549,0.069822 -0.06844,0.032583 -0.180442,0.06827 -0.09488,0.02948 -0.206882,0.049651 -0.11044,0.021725 -0.244211,0.021725 -0.251995,0 -0.458878,-0.069822 -0.205328,-0.071374 -0.357768,-0.2218784 -0.149329,-0.1474016 -0.233325,-0.3739343 -0.084,-0.2280846 -0.084,-0.5290939 0,-0.2854938 0.08089,-0.5104751 0.08089,-0.2249814 0.233327,-0.3801407 0.147772,-0.1505048 0.356211,-0.2296363 0.209994,-0.079131 0.465096,-0.079131 0.186661,0 0.371767,0.044996 0.186661,0.044996 0.413766,0.1582628 v 0.3646247 h -0.02333 Q 17.304845,5.357506 17.116628,5.284581 16.928411,5.211657 16.713751,5.211657 q -0.175772,0 -0.317325,0.057409 -0.139994,0.055857 -0.250435,0.1753303 -0.10733,0.1163695 -0.167995,0.2948031 -0.05911,0.1768816 -0.05911,0.4096213 0,0.2436001 0.06532,0.4189303 0.06689,0.1753306 0.171107,0.2854938 0.108884,0.1148179 0.253547,0.1706753 0.146217,0.054305 0.307989,0.054305 0.222438,0 0.416878,-0.076028 0.19444,-0.076029 0.363989,-0.2280847 h 0.02177 z m 1.893051,-0.6982177 q 0,0.4235854 -0.217768,0.6687372 -0.217772,0.2451524 -0.583315,0.2451524 -0.368658,0 -0.586427,-0.2451524 -0.216217,-0.2451518 -0.216217,-0.6687372 0,-0.4235859 0.216217,-0.6687376 0.217769,-0.2467038 0.586427,-0.2467038 0.365543,0 0.583315,0.2467038 0.217768,0.2451517 0.217768,0.6687376 z m -0.301765,0 q 0,-0.3366965 -0.13222,-0.499614 -0.132217,-0.1644689 -0.367098,-0.1644689 -0.237992,0 -0.370212,0.1644689 -0.13066,0.1629175 -0.13066,0.499614 0,0.3258349 0.132214,0.4949586 0.132218,0.1675725 0.368658,0.1675725 0.233325,0 0.365543,-0.1660208 0.133775,-0.1675723 0.133775,-0.4965103 z m 3.289901,0.8657902 H 22.108253 V 6.3148383 q 0,-0.1117151 -0.01092,-0.2156721 -0.0093,-0.1039567 -0.042,-0.1660205 -0.03577,-0.066719 -0.102659,-0.1008535 -0.0669,-0.034135 -0.192887,-0.034135 -0.122884,0 -0.245769,0.062064 -0.122885,0.060513 -0.245772,0.1551595 0.0047,0.035687 0.0078,0.083786 0.0031,0.046548 0.0031,0.093096 V 7.3016529 H 20.986677 V 6.3148383 q 0,-0.1148183 -0.01092,-0.2172237 -0.0093,-0.1039567 -0.04199,-0.1660206 -0.03577,-0.066718 -0.102662,-0.099302 -0.06689,-0.034135 -0.192883,-0.034135 -0.119775,0 -0.241105,0.05896 -0.119774,0.05896 -0.23955,0.1505048 V 7.3016529 H 19.865135 V 5.5685207 h 0.29243 v 0.1923977 q 0.13689,-0.1132665 0.272216,-0.1768816 0.136885,-0.063615 0.29088,-0.063615 0.177328,0 0.300213,0.074477 0.124442,0.074477 0.185107,0.206362 0.177328,-0.1489529 0.323547,-0.21412 0.146217,-0.066718 0.312656,-0.066718 0.286212,0 0.421541,0.1737786 0.136884,0.1722269 0.136884,0.4825463 z m 2.092159,-0.8875128 q 0,0.211017 -0.06067,0.3863476 -0.06067,0.1737786 -0.171106,0.2948029 -0.102665,0.1148179 -0.242661,0.1784335 -0.138438,0.062064 -0.29399,0.062064 -0.13533,0 -0.24577,-0.02948 -0.108886,-0.029481 -0.222438,-0.091544 V 7.9409102 H 22.963781 V 5.5685207 h 0.292436 v 0.1815366 q 0.116665,-0.09775 0.261324,-0.1629175 0.146219,-0.066718 0.311104,-0.066718 0.31421,0 0.488428,0.2373939 0.175775,0.2358426 0.175775,0.6563244 z m -0.301772,0.00776 q 0,-0.3134223 -0.107328,-0.4685816 -0.107332,-0.1551596 -0.329767,-0.1551596 -0.125997,0 -0.253548,0.054305 -0.127551,0.054305 -0.244216,0.1427467 v 0.9821598 q 0.12444,0.055858 0.213103,0.076028 0.09022,0.02017 0.203773,0.02017 0.244215,0 0.3811,-0.1644691 0.136883,-0.1644692 0.136883,-0.4872011 z m 1.053081,0.8797548 H 24.951723 V 4.8873693 h 0.292434 z m 2.033051,-0.83631 h -1.280183 q 0,0.1598143 0.04823,0.2792872 0.04822,0.1179212 0.132214,0.1939493 0.0809,0.074477 0.191328,0.1117151 0.111998,0.037239 0.24577,0.037239 0.17733,0 0.356211,-0.069823 0.180441,-0.071373 0.25666,-0.1396436 h 0.01557 v 0.3180773 q -0.147772,0.062064 -0.30177,0.1039568 -0.153994,0.041893 -0.323543,0.041893 -0.432435,0 -0.675093,-0.2327394 -0.242661,-0.2342911 -0.242661,-0.6640828 0,-0.4251373 0.231774,-0.6749441 0.233325,-0.2498067 0.61287,-0.2498067 0.351544,0 0.541315,0.2048104 0.191328,0.2048109 0.191328,0.5818482 z M 26.992549,6.2419112 q -0.0016,-0.2296364 -0.116664,-0.3553155 -0.113552,-0.1256793 -0.34688,-0.1256793 -0.23488,0 -0.374876,0.1380922 -0.138438,0.1380919 -0.157104,0.3429026 z m 2.232155,1.0597396 H 28.856046 L 28.362952,6.6360171 27.866743,7.3016518 H 27.526087 L 28.204291,6.4374131 27.53231,5.5685196 h 0.368657 l 0.489983,0.6547732 0.491539,-0.6547732 h 0.342215 L 28.541836,6.421897 Z m 3.251014,-2.0450019 q 0.141549,0.1551599 0.216213,0.3801409 0.07622,0.2249814 0.07622,0.5104748 0,0.2854935 -0.07778,0.5120266 -0.07622,0.2249812 -0.21466,0.3754862 -0.143108,0.1567109 -0.339101,0.2358423 -0.19444,0.079132 -0.444876,0.079132 -0.244215,0 -0.444875,-0.080683 -0.199107,-0.080683 -0.339103,-0.234291 -0.139993,-0.1536079 -0.216214,-0.3770376 -0.07466,-0.2234301 -0.07466,-0.5104752 0,-0.2823902 0.07466,-0.5058198 0.07467,-0.2249817 0.217771,-0.3847959 0.136884,-0.1520563 0.3391,-0.2327394 0.203773,-0.080683 0.443321,-0.080683 0.24888,0 0.446429,0.082234 0.199106,0.080683 0.337548,0.2311877 z m -0.028,0.8906157 q 0,-0.4499627 -0.202215,-0.6935631 -0.202215,-0.245152 -0.552205,-0.245152 -0.353101,0 -0.555316,0.245152 -0.200659,0.2436004 -0.200659,0.6935631 0,0.4546177 0.205325,0.6966664 0.205327,0.2404972 0.55065,0.2404972 0.345323,0 0.549097,-0.2404972 0.205323,-0.2420487 0.205323,-0.6966664 z m 2.02683,0.6547734 q 0,0.2373944 -0.197548,0.3894503 -0.195995,0.1520563 -0.536652,0.1520563 -0.192883,0 -0.354656,-0.044996 -0.160225,-0.046547 -0.269111,-0.1008535 v -0.327387 h 0.01557 q 0.138438,0.1039572 0.30799,0.1660206 0.169551,0.060513 0.325103,0.060513 0.19288,0 0.301765,-0.062064 0.108889,-0.062064 0.108889,-0.1955009 0,-0.1024055 -0.05911,-0.1551598 Q 34.057678,6.631363 33.889685,6.594125 33.827465,6.580163 33.726357,6.561542 33.626807,6.542924 33.544359,6.5212 33.3157,6.460687 33.219259,6.3443181 q -0.09488,-0.1179213 -0.09488,-0.2885966 0,-0.10706 0.04356,-0.2017075 0.04511,-0.094647 0.135329,-0.1691239 0.08711,-0.072924 0.220881,-0.1148182 0.13533,-0.043444 0.301769,-0.043444 0.155551,0 0.314213,0.03879 0.160218,0.037238 0.265993,0.091544 v 0.311871 h -0.01557 q -0.112,-0.082234 -0.272216,-0.1380923 -0.160219,-0.057409 -0.314214,-0.057409 -0.160216,0 -0.270659,0.062064 -0.110441,0.060513 -0.110441,0.1815366 0,0.1070601 0.06689,0.1613659 0.06532,0.054305 0.211549,0.08844 0.08089,0.018618 0.180437,0.037239 0.101109,0.018618 0.167997,0.034135 0.20377,0.046548 0.314211,0.1598143 0.110442,0.1148181 0.110442,0.3041127 z m 1.703282,0.3910022 q -0.146217,0.069822 -0.278437,0.1086116 -0.130662,0.038789 -0.278437,0.038789 -0.188217,0 -0.345323,-0.054305 -0.157104,-0.055857 -0.269102,-0.1675723 -0.113552,-0.1117148 -0.175772,-0.2823904 -0.06222,-0.1706753 -0.06222,-0.3987599 0,-0.4251374 0.233327,-0.6671862 0.234884,-0.2420487 0.619092,-0.2420487 0.149328,0 0.292437,0.041893 0.144661,0.041894 0.264437,0.1024055 v 0.3242835 h -0.01557 q -0.133776,-0.1039565 -0.27688,-0.159814 -0.141551,-0.055858 -0.276881,-0.055858 -0.248885,0 -0.393547,0.1675726 -0.143106,0.1660206 -0.143106,0.4887524 0,0.3134221 0.139998,0.4825461 0.14155,0.1675725 0.396655,0.1675725 0.08866,0 0.180436,-0.023273 0.09178,-0.023273 0.164888,-0.060513 0.06377,-0.032584 0.119773,-0.06827 0.056,-0.037239 0.08866,-0.063615 h 0.01557 z M 36.86692,5.2783716 H 36.537154 V 4.9758101 H 36.86692 Z M 36.84825,7.3016518 H 36.55581 V 5.5685204 h 0.292436 z m 0.874193,0 H 37.430004 V 4.8873693 h 0.292435 z m 0.874199,0 h -0.29244 V 4.8873693 h 0.292436 z m 1.928829,0 H 40.23459 v -0.18464 q -0.03888,0.026377 -0.105773,0.074477 -0.06533,0.046548 -0.127554,0.074477 -0.07311,0.035687 -0.167994,0.05896 -0.09488,0.024825 -0.222438,0.024825 -0.234883,0 -0.39821,-0.1551596 -0.163328,-0.1551593 -0.163328,-0.3956569 0,-0.1970524 0.084,-0.3180772 0.08555,-0.1225759 0.242658,-0.1923976 0.158662,-0.069823 0.381099,-0.094648 0.222441,-0.024825 0.477543,-0.037239 v -0.044996 q 0,-0.099303 -0.03578,-0.1644691 -0.03422,-0.065167 -0.09955,-0.1024053 -0.06222,-0.035687 -0.149329,-0.048099 -0.08711,-0.012413 -0.181995,-0.012413 -0.115106,0 -0.25666,0.031031 -0.14155,0.02948 -0.292437,0.086889 h -0.01557 V 5.6057567 q 0.08555,-0.023273 0.247325,-0.051203 0.161772,-0.027929 0.318879,-0.027929 0.18355,0 0.318882,0.031032 0.136885,0.029479 0.236435,0.1024051 0.09799,0.071373 0.149328,0.1846399 0.05133,0.1132665 0.05133,0.2808386 z M 40.234587,6.8749628 V 6.392417 q -0.133773,0.00776 -0.315769,0.023273 -0.180439,0.015516 -0.286213,0.044996 -0.125997,0.035688 -0.203772,0.1117151 -0.07777,0.074477 -0.07777,0.2063621 0,0.1489532 0.09022,0.2249813 0.09022,0.074477 0.275324,0.074477 0.153996,0 0.281549,-0.05896 0.127549,-0.060513 0.236437,-0.1442983 z m 1.75617,0.411173 q -0.08245,0.021724 -0.18044,0.035687 -0.09644,0.013964 -0.172662,0.013964 -0.265993,0 -0.404431,-0.1427467 Q 41.094782,7.0502937 41.094782,6.7353198 V 5.813672 H 40.897234 V 5.5685199 h 0.197548 V 5.0704571 h 0.292437 v 0.498062 h 0.603538 v 0.2451521 h -0.603538 v 0.7897619 q 0,0.1365404 0.0063,0.2141201 0.0063,0.076029 0.04356,0.1427469 0.03422,0.062064 0.09333,0.091544 0.06067,0.02793 0.183547,0.02793 0.07155,0 0.149331,-0.02017 0.07777,-0.021725 0.111995,-0.035687 h 0.01557 z m 1.833944,-0.8502741 q 0,0.4235854 -0.217773,0.6687371 -0.217771,0.2451524 -0.583314,0.2451524 -0.368657,0 -0.586427,-0.2451524 -0.216217,-0.2451517 -0.216217,-0.6687371 0,-0.4235859 0.216217,-0.6687377 0.21777,-0.2467037 0.586427,-0.2467037 0.365543,0 0.583314,0.2467037 0.217773,0.2451518 0.217773,0.6687377 z m -0.301768,0 q 0,-0.3366965 -0.132219,-0.499614 -0.13222,-0.1644689 -0.3671,-0.1644689 -0.237995,0 -0.370209,0.1644689 -0.130664,0.1629175 -0.130664,0.499614 0,0.3258349 0.132216,0.4949586 0.13222,0.1675725 0.368657,0.1675725 0.233325,0 0.365543,-0.1660208 0.133776,-0.1675724 0.133776,-0.4965103 z m 1.838612,-0.5492651 h -0.01557 q -0.06533,-0.015516 -0.127551,-0.021725 -0.06067,-0.00776 -0.144663,-0.00776 -0.135329,0 -0.261325,0.060513 -0.125997,0.058961 -0.242661,0.1536079 V 7.3016507 H 44.277336 V 5.5685186 h 0.292437 V 5.824532 q 0.174217,-0.1396438 0.306435,-0.1970529 0.133775,-0.05896 0.272213,-0.05896 0.07622,0 0.110443,0.00466 0.03423,0.0031 0.102665,0.013964 z"
     id="text8"
     style="font-size:12.0139px;fill:#24221c;stroke:#24221c;stroke-width:0.26514"
     aria-label="Complex Oscillator" />
</svg>
