<?xml version="1.0" encoding="UTF-8" standalone="no"?>
<svg
   viewBox="0 0 81.280006 128.5"
   width="81.280006mm"
   height="128.5mm"
   version="1.1"
   id="svg5"
   sodipodi:docname="KI1H-VCA.svg"
   inkscape:version="1.4.2 (ebf0e940, 2025-05-08)"
   xmlns:inkscape="http://www.inkscape.org/namespaces/inkscape"
   xmlns:sodipodi="http://sodipodi.sourceforge.net/DTD/sodipodi-0.dtd"
   xmlns="http://www.w3.org/2000/svg"
   xmlns:svg="http://www.w3.org/2000/svg">
  <sodipodi:namedview
     id="namedview1"
     pagecolor="#ffffff"
     bordercolor="#000000"
     borderopacity="0.25"
     inkscape:showpageshadow="2"
     inkscape:pageopacity="0.0"
     inkscape:pagecheckerboard="0"
     inkscape:deskcolor="#d1d1d1"
     inkscape:document-units="mm"
     inkscape:zoom="1.1495796"
     inkscape:cx="203.11773"
     inkscape:cy="301.41454"
     inkscape:window-width="1728"
     inkscape:window-height="1084"
     inkscape:window-x="0"
     inkscape:window-y="33"
     inkscape:window-maximized="0"
     inkscape:current-layer="svg5" />
  <defs
     id="defs1" />
  <g
     transform="matrix(0.26450988,0,0,0.26450988,-238.81843,-78.617533)"
     id="g5">
    <g
       id="g4"
       transform="matrix(1.0034568,0,0,1,-3.1210433,-0.64402784)">
      <g
         id="g1"
         transform="matrix(0.9715842,0,0,1,56.701035,1.2880551)">
        <path
           d="m 1186.0137,296.57561 c 0,0 -315.09542,0 -315.09542,0 0,0 0,485.66924 0,485.66924 0,0 315.09542,0 315.09542,0 z"
           fill="#8ac68a"
           id="path1"
           style="fill:#000000;stroke-width:1.16023" />
      </g>
    </g>
  </g>
  <rect
     style="fill:#aade87;stroke-width:0.265097"
     id="rect7"
     width="76.178841"
     height="121.96613"
     x="2.5272985"
     y="3.2129803"
     ry="10.965023" />
  <rect
     style="fill:#c6e9af;stroke:#f9f9f9;stroke-width:0.264481"
     id="rect8"
     width="43.863262"
     height="4.3373079"
     x="18.697084"
     y="4.1036172" />
  <path
     d="M 36.235182,4.8264686 35.394923,7.1348548 H 34.985646 L 34.145387,4.8264686 h 0.328662 l 0.723987,2.0308838 0.723987,-2.0308838 z m 2.133203,2.1409546 q -0.08527,0.037207 -0.155029,0.069763 -0.06821,0.032556 -0.179834,0.068213 -0.09457,0.029456 -0.206189,0.049609 -0.110071,0.021704 -0.243396,0.021704 -0.251147,0 -0.457336,-0.069763 Q 36.921962,7.035636 36.770033,6.8852576 36.621205,6.7379798 36.537489,6.511637 q -0.08372,-0.227893 -0.08372,-0.5286499 0,-0.2852539 0.08062,-0.5100463 0.08062,-0.2247925 0.232544,-0.3798218 0.147278,-0.1503784 0.355017,-0.2294434 0.209289,-0.079065 0.463537,-0.079065 0.186035,0 0.37052,0.044958 0.186036,0.044958 0.412378,0.1581299 v 0.3643188 h -0.02325 Q 38.154445,5.1923377 37.966859,5.119474 q -0.187585,-0.072864 -0.401525,-0.072864 -0.175184,0 -0.31626,0.057361 -0.139527,0.055811 -0.249597,0.1751831 -0.106971,0.116272 -0.167432,0.2945557 -0.05891,0.1767334 -0.05891,0.4092773 0,0.243396 0.06511,0.4185791 0.06666,0.1751831 0.170532,0.2852539 0.108521,0.1147217 0.252698,0.1705323 0.145728,0.05426 0.306958,0.05426 0.221692,0 0.415479,-0.075964 0.193786,-0.075964 0.362768,-0.2278931 h 0.0217 z m 2.254126,0.1674316 H 40.295399 L 40.069057,6.4914832 h -0.998389 l -0.226343,0.6433716 h -0.311609 l 0.840259,-2.3083862 h 0.409277 z M 39.974489,6.2279334 39.569862,5.0946693 39.163686,6.2279334 Z m 4.170288,0.9069214 H 43.837819 V 5.1458289 L 43.195998,6.4992347 H 43.013063 L 42.375893,5.1458289 V 7.1348548 H 42.089088 V 4.8264686 h 0.41858 l 0.615466,1.2851928 0.595312,-1.2851928 h 0.426331 z m 0.910022,-2.021582 H 44.726137 V 4.8109657 h 0.328662 z m -0.0186,2.021582 H 44.744741 V 5.4031776 h 0.291455 z m 2.075842,0 h -0.36742 L 46.253176,6.4697791 45.758632,7.1348548 h -0.339514 l 0.675928,-0.8635132 -0.669727,-0.868164 h 0.36742 l 0.488342,0.6542236 0.489892,-0.6542236 h 0.341065 l -0.680579,0.8526611 z"
     id="text1"
     style="font-size:3.175px;fill-opacity:0;stroke:#24221c;stroke-width:0.264583"
     aria-label="VCA Mix" />
</svg>
