<?xml version="1.0" encoding="UTF-8" standalone="no"?>
<svg
   viewBox="0 0 50.799999 128.49998"
   width="50.799999mm"
   height="128.49998mm"
   version="1.1"
   id="svg5"
   sodipodi:docname="KI1H-LFO.svg"
   inkscape:version="1.4.2 (ebf0e940, 2025-05-08)"
   xmlns:inkscape="http://www.inkscape.org/namespaces/inkscape"
   xmlns:sodipodi="http://sodipodi.sourceforge.net/DTD/sodipodi-0.dtd"
   xmlns="http://www.w3.org/2000/svg"
   xmlns:svg="http://www.w3.org/2000/svg">
  <sodipodi:namedview
     id="namedview1"
     pagecolor="#505050"
     bordercolor="#ffffff"
     borderopacity="1"
     inkscape:showpageshadow="0"
     inkscape:pageopacity="0"
     inkscape:pagecheckerboard="1"
     inkscape:deskcolor="#505050"
     inkscape:document-units="mm"
     inkscape:zoom="1.3862214"
     inkscape:cx="253.20631"
     inkscape:cy="256.09185"
     inkscape:window-width="1728"
     inkscape:window-height="1055"
     inkscape:window-x="0"
     inkscape:window-y="34"
     inkscape:window-maximized="0"
     inkscape:current-layer="layer2" />
  <defs
     id="defs1" />
  <g
     transform="matrix(0.16641628,0,0,0.26458333,-150.25251,-78.639361)"
     id="g5">
    <g
       id="g4"
       transform="matrix(1.0034568,0,0,1,-3.1210433,-0.64402784)">
      <g
         id="g1"
         transform="matrix(0.9715842,0,0,1,56.701035,1.2880551)">
        <path
           d="m 1186.0137,296.57561 c 0,0 -315.09543,0 -315.09543,0 0,0 0,485.66924 0,485.66924 0,0 315.09543,0 315.09543,0 z"
           fill="#8ac68a"
           id="path1"
           style="display:inline;fill:#000000;stroke-width:1.16023" />
      </g>
    </g>
  </g>
  <g
     inkscape:groupmode="layer"
     id="layer2"
     inkscape:label="label">
    <rect
       style="fill:#aade87;stroke-width:0.204839"
       id="rect7"
       width="45.470478"
       height="122"
       x="2.5280082"
       y="-125.21387"
       ry="10.968067"
       transform="scale(1,-1)" />
    <rect
       style="fill:#c6e9af;stroke:#f9f9f9;stroke-width:0.222537"
       id="rect8"
       width="30.747667"
       height="4.3805289"
       x="10.1216"
       y="4.0837531" />
    <path
       d="M 12.882938,7.103917 H 12.575235 V 5.1150933 L 11.931861,6.4683617 H 11.748484 L 11.109772,5.1150933 V 7.103917 H 10.822274 V 4.7957656 h 0.419592 l 0.616957,1.2850622 0.596752,-1.2850622 h 0.427363 z m 2.077757,-0.8649753 q 0,0.4231868 -0.217567,0.6681079 -0.217567,0.2449216 -0.582766,0.2449216 -0.368311,0 -0.585875,-0.2449216 -0.216014,-0.2449211 -0.216014,-0.6681079 0,-0.4231872 0.216014,-0.6681083 0.217564,-0.2464716 0.585875,-0.2464716 0.365199,0 0.582766,0.2464716 0.217567,0.2449211 0.217567,0.6681083 z m -0.301485,0 q 0,-0.3363796 -0.132093,-0.4991438 -0.132096,-0.1643142 -0.366755,-0.1643142 -0.237771,0 -0.369861,0.1643142 -0.130543,0.1627642 -0.130543,0.4991438 0,0.3255283 0.132093,0.4944928 0.132096,0.1674148 0.368311,0.1674148 0.233106,0 0.365199,-0.1658646 0.133649,-0.1674146 0.133649,-0.496043 z M 16.820885,7.103917 H 16.528724 V 6.9225512 q -0.125878,0.1085094 -0.262633,0.1689648 -0.136756,0.060455 -0.296823,0.060455 -0.310809,0 -0.494186,-0.2387209 -0.181825,-0.2387208 -0.181825,-0.6619075 0,-0.2201194 0.06216,-0.3921842 0.06371,-0.1720652 0.170945,-0.2929758 0.105677,-0.1178102 0.245538,-0.1798159 0.141418,-0.062005 0.292161,-0.062005 0.136755,0 0.24243,0.029452 0.105677,0.027903 0.222229,0.088358 V 4.6919066 h 0.292161 z M 16.528724,6.6776296 V 5.6839933 q -0.118107,-0.052705 -0.211349,-0.072857 -0.09324,-0.020151 -0.203579,-0.020151 -0.245541,0 -0.382296,0.1705149 -0.136755,0.1705144 -0.136755,0.4836419 0,0.308477 0.105674,0.469691 0.105675,0.1596639 0.338781,0.1596639 0.124322,0 0.251756,-0.054255 0.127434,-0.055805 0.237768,-0.1426124 z m 2.306203,0.4262874 h -0.29216 V 6.9117002 q -0.147635,0.1162603 -0.282835,0.1782656 -0.135204,0.062005 -0.298378,0.062005 -0.273511,0 -0.425807,-0.1658644 Q 17.38345,6.818692 17.38345,6.4962638 V 5.372416 h 0.292161 v 0.9858859 q 0,0.1317617 0.01244,0.2263198 0.01243,0.093008 0.05284,0.1596639 0.04196,0.068206 0.108781,0.099209 0.06683,0.031003 0.194257,0.031003 0.113446,0 0.247092,-0.058905 0.135205,-0.058905 0.251756,-0.1503632 V 5.372416 h 0.292161 z m 0.870265,0 H 19.413031 V 4.6919066 h 0.292161 z m 1.927016,0 H 21.341603 V 6.9194509 q -0.03885,0.026352 -0.105677,0.074406 -0.06527,0.046504 -0.127431,0.074407 -0.07304,0.035653 -0.167836,0.058905 -0.0948,0.024802 -0.222229,0.024802 -0.234659,0 -0.397835,-0.1550135 -0.163177,-0.1550133 -0.163177,-0.3952846 0,-0.1968669 0.08392,-0.3177778 0.08547,-0.1224606 0.242435,-0.1922166 0.158509,-0.069756 0.380738,-0.094558 0.222229,-0.024802 0.477094,-0.037203 v -0.044954 q 0,-0.099209 -0.03574,-0.1643145 -0.03419,-0.065106 -0.09946,-0.1023088 -0.06216,-0.035653 -0.149188,-0.048054 -0.08703,-0.012401 -0.181821,-0.012401 -0.115001,0 -0.256418,0.031003 -0.141418,0.029453 -0.292161,0.086807 h -0.01556 V 5.409619 q 0.08547,-0.023252 0.247095,-0.051154 0.16162,-0.027902 0.318579,-0.027902 0.183377,0 0.31858,0.031003 0.136755,0.029452 0.236212,0.1023088 0.09791,0.071306 0.14919,0.1844662 0.05128,0.1131599 0.05128,0.2805742 z M 21.341603,6.6776296 v -0.482092 q -0.133649,0.00775 -0.31547,0.023252 -0.180272,0.015502 -0.285946,0.044954 -0.125878,0.035653 -0.203581,0.11161 -0.0777,0.074406 -0.0777,0.2061678 0,0.148813 0.09013,0.2247696 0.09013,0.074407 0.275063,0.074407 0.153853,0 0.281284,-0.058905 0.127434,-0.060455 0.236217,-0.1441627 z m 1.754513,0.410786 q -0.08236,0.021704 -0.180268,0.035653 -0.09635,0.013951 -0.172501,0.013951 -0.265739,0 -0.40405,-0.1426122 -0.138311,-0.1426126 -0.138311,-0.45729 V 5.6173376 H 22.003625 V 5.3724162 h 0.197361 V 4.8748218 h 0.292161 v 0.4975934 h 0.602969 v 0.2449213 h -0.602969 v 0.7890188 q 0,0.1364117 0.0062,0.2139185 0.0062,0.075957 0.04351,0.1426125 0.03419,0.062006 0.09324,0.091458 0.06061,0.027903 0.183381,0.027903 0.07149,0 0.149187,-0.020151 0.0777,-0.021704 0.11189,-0.035653 h 0.01556 z M 23.762803,5.0825409 H 23.433346 V 4.7802642 h 0.329457 z M 23.744153,7.103917 H 23.451995 V 5.372416 h 0.292158 z M 25.80171,6.2389417 q 0,0.4231868 -0.217565,0.6681079 -0.217567,0.2449216 -0.582766,0.2449216 -0.36831,0 -0.585877,-0.2449216 -0.216011,-0.2449211 -0.216011,-0.6681079 0,-0.4231872 0.216011,-0.6681083 0.217567,-0.2464716 0.585877,-0.2464716 0.365199,0 0.582766,0.2464716 0.217565,0.2449211 0.217565,0.6681083 z m -0.301483,0 q 0,-0.3363796 -0.132095,-0.4991438 -0.132094,-0.1643142 -0.366753,-0.1643142 -0.237773,0 -0.369863,0.1643142 -0.13054,0.1627642 -0.13054,0.4991438 0,0.3255283 0.132093,0.4944928 0.132093,0.1674148 0.36831,0.1674148 0.233104,0 0.365199,-0.1658646 0.133649,-0.1674146 0.133649,-0.496043 z M 27.705416,7.103917 H 27.413251 V 6.1180311 q 0,-0.1193607 -0.014,-0.2232194 -0.014,-0.1054092 -0.05128,-0.1643147 -0.03885,-0.065105 -0.111889,-0.096108 -0.07304,-0.032553 -0.189596,-0.032553 -0.119663,0 -0.2502,0.058905 -0.13054,0.058905 -0.250203,0.1503629 V 7.103917 h -0.29216 V 5.372416 h 0.292159 v 0.1922166 q 0.136757,-0.1131599 0.282839,-0.1767152 0.146079,-0.063556 0.299932,-0.063556 0.281278,0 0.428916,0.1689648 0.147632,0.1689645 0.147632,0.4867426 z M 31.09168,6.4451096 q 0,0.1348615 -0.06372,0.2666232 -0.06216,0.1317615 -0.175604,0.2232195 -0.124325,0.099209 -0.290608,0.1550135 -0.16473,0.055805 -0.397836,0.055805 -0.250203,0 -0.450672,-0.046504 -0.198919,-0.046504 -0.405607,-0.137962 V 6.576871 h 0.02175 q 0.175607,0.1457127 0.405606,0.2247694 0.23,0.079057 0.432025,0.079057 0.285944,0 0.444455,-0.1069597 0.160068,-0.1069591 0.160068,-0.2852245 0,-0.1534634 -0.07615,-0.2263198 -0.07459,-0.072857 -0.228444,-0.1131599 -0.116551,-0.031003 -0.253309,-0.051155 -0.135199,-0.020151 -0.287499,-0.051154 -0.3077,-0.065106 -0.456888,-0.2216692 -0.147632,-0.1581137 -0.147632,-0.4107858 0,-0.2898754 0.245536,-0.4743413 0.245539,-0.1860163 0.623173,-0.1860163 0.243986,0 0.447567,0.046504 0.203578,0.046504 0.360537,0.1147101 v 0.3627316 h -0.02175 q -0.132092,-0.1116097 -0.348106,-0.1844659 -0.214458,-0.074407 -0.439793,-0.074407 -0.247092,0 -0.397835,0.1023091 -0.149188,0.1023088 -0.149188,0.2635229 0,0.1441625 0.07459,0.2263198 0.0746,0.082157 0.262633,0.125561 0.09946,0.021704 0.282837,0.052705 0.183378,0.031003 0.310812,0.063555 0.257968,0.068206 0.388511,0.2061681 0.13054,0.1379619 0.130541,0.385984 z m 1.950319,-0.2061679 q 0,0.4231868 -0.217564,0.6681079 -0.217567,0.2449216 -0.582766,0.2449216 -0.368308,0 -0.585875,-0.2449216 -0.216013,-0.2449211 -0.216013,-0.6681079 0,-0.4231872 0.216013,-0.6681083 0.217567,-0.2464716 0.585875,-0.2464716 0.365199,0 0.582766,0.2464716 0.217564,0.2449211 0.217564,0.6681083 z m -0.301482,0 q 0,-0.3363796 -0.132096,-0.4991438 -0.132093,-0.1643142 -0.366752,-0.1643142 -0.237768,0 -0.369864,0.1643142 -0.130537,0.1627642 -0.130537,0.4991438 0,0.3255283 0.132093,0.4944928 0.132091,0.1674148 0.368308,0.1674148 0.233106,0 0.365199,-0.1658646 0.133649,-0.1674146 0.133649,-0.496043 z M 34.933273,7.103917 H 34.641112 V 6.9117002 q -0.147635,0.1162603 -0.282834,0.1782656 -0.135205,0.062005 -0.298379,0.062005 -0.27351,0 -0.425807,-0.1658644 Q 33.481795,6.818692 33.481795,6.4962638 V 5.372416 h 0.292161 v 0.9858859 q 0,0.1317617 0.01244,0.2263198 0.01244,0.093008 0.05284,0.1596639 0.04196,0.068206 0.10878,0.099209 0.06682,0.031003 0.194257,0.031003 0.113446,0 0.247092,-0.058905 0.135205,-0.058905 0.251757,-0.1503632 V 5.372416 h 0.29216 z m 1.658165,-1.4137235 h -0.01556 q -0.06527,-0.015502 -0.127431,-0.021704 -0.06061,-0.00775 -0.144529,-0.00775 -0.135199,0 -0.261077,0.060455 -0.125879,0.058905 -0.24243,0.1534633 V 7.103916 h -0.29215 V 5.3724149 h 0.29216 v 0.2557725 q 0.174051,-0.1395124 0.306145,-0.1968675 0.133648,-0.058905 0.271959,-0.058905 0.07615,0 0.110337,0.00465 0.03419,0.0031 0.102566,0.013952 z m 1.558708,1.3052142 Q 38.004067,7.0651637 37.871971,7.103917 37.741433,7.14267 37.593798,7.14267 37.405756,7.14267 37.2488,7.088415 37.091841,7.03261 36.979952,6.9210005 36.866506,6.8093907 36.804343,6.6388758 q -0.06216,-0.1705147 -0.06216,-0.3983847 0,-0.4247372 0.233106,-0.6665582 0.234662,-0.241821 0.618511,-0.241821 0.149188,0 0.292161,0.041853 0.144524,0.041854 0.264187,0.1023091 v 0.3239783 h -0.01556 q -0.133649,-0.103859 -0.276619,-0.1596639 -0.141417,-0.055805 -0.276619,-0.055805 -0.248645,0 -0.393174,0.1674149 -0.14297,0.1658643 -0.14297,0.4882925 0,0.3131272 0.139861,0.482092 0.14142,0.1674148 0.396283,0.1674148 0.08858,0 0.180271,-0.023252 0.09169,-0.023252 0.164727,-0.060455 0.06371,-0.032553 0.11966,-0.068206 0.05595,-0.037203 0.08858,-0.063556 h 0.01556 z m 1.827556,-0.7270136 h -1.27898 q 0,0.1596639 0.04818,0.2790243 0.04818,0.1178102 0.132096,0.1937668 0.08081,0.074407 0.191146,0.11161 0.111892,0.037203 0.245541,0.037203 0.17716,0 0.355875,-0.069756 0.180269,-0.071306 0.256416,-0.1395122 h 0.01556 v 0.3177778 q -0.147635,0.062005 -0.301485,0.103859 -0.15385,0.041854 -0.323242,0.041854 -0.432022,0 -0.674457,-0.2325203 -0.24243,-0.2340706 -0.24243,-0.6634578 0,-0.4247372 0.231553,-0.6743089 0.233108,-0.2495717 0.612296,-0.2495717 0.351213,0 0.540806,0.2046177 0.191148,0.2046181 0.191148,0.5813007 z M 39.693309,6.0451747 q -0.0016,-0.2294202 -0.116551,-0.3549812 -0.113446,-0.1255609 -0.346551,-0.1255609 -0.234659,0 -0.374526,0.1379622 -0.138311,0.137962 -0.156959,0.3425799 z"
       id="text8"
       style="font-size:12.0139px;fill:#24221c;stroke:#24221c;stroke-width:0.26489"
       aria-label="Modulation Source" />
  </g>
  <g
     inkscape:groupmode="layer"
     id="layer1"
     inkscape:label="grid"
     style="display:inline" />
</svg>
