<?xml version="1.0" encoding="UTF-8" standalone="no"?>
<svg
   viewBox="0 0 81.280006 128.5"
   width="81.280006mm"
   height="128.5mm"
   version="1.1"
   id="svg5"
   sodipodi:docname="KI1H-MIX.svg"
   inkscape:version="1.4.2 (ebf0e940, 2025-05-08)"
   xml:space="preserve"
   xmlns:inkscape="http://www.inkscape.org/namespaces/inkscape"
   xmlns:sodipodi="http://sodipodi.sourceforge.net/DTD/sodipodi-0.dtd"
   xmlns="http://www.w3.org/2000/svg"
   xmlns:svg="http://www.w3.org/2000/svg"><sodipodi:namedview
     id="namedview1"
     pagecolor="#ffffff"
     bordercolor="#000000"
     borderopacity="0.25"
     inkscape:showpageshadow="2"
     inkscape:pageopacity="0.0"
     inkscape:pagecheckerboard="0"
     inkscape:deskcolor="#d1d1d1"
     inkscape:document-units="mm"
     inkscape:zoom="1.711847"
     inkscape:cx="107.19416"
     inkscape:cy="275.72557"
     inkscape:window-width="1728"
     inkscape:window-height="1055"
     inkscape:window-x="0"
     inkscape:window-y="34"
     inkscape:window-maximized="0"
     inkscape:current-layer="svg5" /><defs
     id="defs1" /><g
     transform="matrix(0.26446037,0,0,0.26446037,-238.77373,-78.602817)"
     id="g5"><g
       id="g4"
       transform="matrix(1.0034568,0,0,1,-3.1210433,-0.64402784)"><g
         id="g1"
         transform="matrix(0.9715842,0,0,1,56.701035,1.2880551)"><path
           d="m 1186.0137,296.57561 c 0,0 -315.09542,0 -315.09542,0 0,0 0,485.66924 0,485.66924 0,0 315.09542,0 315.09542,0 z"
           fill="#8ac68a"
           id="path1"
           style="fill:#000000;stroke-width:1.16023" /></g></g></g><rect
     style="fill:#aade87;stroke-width:0.265048"
     id="rect7"
     width="76.164581"
     height="121.9433"
     x="2.5268242"
     y="3.212379"
     ry="10.96297" /><rect
     style="fill:#c6e9af;stroke:#f9f9f9;stroke-width:0.264431"
     id="rect8"
     width="43.855049"
     height="4.3364964"
     x="18.693584"
     y="4.1028495" /><path
     d="m 17.868674,14.678788 h -0.269625 v -3.018567 h 0.269625 z"
     id="text26"
     style="stroke:#24221c;stroke-width:0.26446"
     aria-label="|" /><path
     d="m 62.874204,14.635611 h -0.269627 v -3.018567 h 0.269627 z"
     id="text37"
     style="stroke:#24221c;stroke-width:0.26446"
     aria-label="|" /><path
     d="m 64.315306,14.635611 h -0.269627 v -3.018567 h 0.269627 z"
     id="text36"
     style="fill:#000000;fill-opacity:0;stroke:#24221c;stroke-width:0.26446"
     aria-label="|" /><path
     d="m 41.35567,13.896773 -0.09917,0.170453 -0.560946,-0.330059 0.0093,0.557846 h -0.199895 l 0.0077,-0.557846 -0.559397,0.331609 -0.100722,-0.170453 0.590389,-0.320762 -0.590389,-0.320762 0.100722,-0.170452 0.560947,0.330059 -0.0093,-0.556297 h 0.199895 l -0.01085,0.556297 0.562497,-0.32851 0.09917,0.170453 -0.588838,0.317662 z"
     id="text38"
     style="stroke:#24221c;stroke-width:0.26446"
     aria-label="*" /><path
     d="m 37.225483,6.9427192 q -0.08527,0.037207 -0.155029,0.069763 -0.06821,0.032556 -0.179834,0.068213 -0.09457,0.029456 -0.206189,0.049609 -0.110071,0.021704 -0.243396,0.021704 -0.251148,0 -0.457337,-0.069763 Q 35.77906,7.0109321 35.627131,6.8605536 35.478303,6.7132758 35.394587,6.486933 35.310871,6.25904 35.310871,5.9582832 q 0,-0.2852539 0.08062,-0.5100464 0.08062,-0.2247925 0.232544,-0.3798218 0.147278,-0.1503784 0.355017,-0.2294434 0.20929,-0.079065 0.463538,-0.079065 0.186035,0 0.37052,0.044958 0.186035,0.044958 0.412378,0.1581299 v 0.3643188 h -0.02325 Q 37.011542,5.1676338 36.823957,5.09477 q -0.187585,-0.072864 -0.401526,-0.072864 -0.175183,0 -0.31626,0.057361 -0.139526,0.05581 -0.249597,0.1751831 -0.10697,0.1162719 -0.167431,0.2945556 -0.05891,0.1767334 -0.05891,0.4092774 0,0.2433959 0.06511,0.4185791 0.06666,0.1751831 0.170532,0.2852539 0.108521,0.1147216 0.252698,0.1705322 0.145727,0.05426 0.306958,0.05426 0.221692,0 0.415478,-0.075964 0.193787,-0.075964 0.362769,-0.2278931 h 0.0217 z M 39.479609,4.8017646 38.63935,7.1101508 H 38.230073 L 37.389814,4.8017646 h 0.328662 l 0.723987,2.0308838 0.723987,-2.0308838 z m 3.522266,2.3083862 H 42.694917 V 5.121125 L 42.053095,6.4745307 H 41.870161 L 41.23299,5.121125 V 7.1101508 H 40.946186 V 4.8017646 h 0.418579 l 0.615466,1.2851929 0.595313,-1.2851929 h 0.426331 z m 0.910022,-2.021582 H 43.583235 V 4.7862617 h 0.328662 z m -0.0186,2.021582 H 43.601838 V 5.3784736 h 0.291455 z m 2.075842,0 H 45.601716 L 45.110273,6.4450751 44.61573,7.1101508 h -0.339514 l 0.675927,-0.8635132 -0.669726,-0.868164 h 0.367419 l 0.488342,0.6542236 0.489893,-0.6542236 h 0.341064 l -0.680578,0.8526611 z"
     id="text1"
     style="font-size:3.175px;fill-opacity:0;stroke:#24221c;stroke-width:0.264583"
     aria-label="CV Mix" /><g
     id="g23"
     transform="translate(-0.11648758,-0.26315222)"
     style="fill:#272420;fill-opacity:0.53112602"><path
       d="m 32.867244,29.161011 a 7.1669998,4.224298 0 0 1 0,0.0026 H 25.70024 18.539437 v 84.851159 h 7.16287 7.164421 a 7.1639056,4.2243676 0 0 1 -5.17e-4,0.004 h 0.0036 V 29.161011 Z"
       style="fill:#272420;fill-opacity:0.53112602;stroke-width:0.264583;stroke-opacity:0.527152"
       id="path19" /><path
       d="M 32.866211,114.01888 H 18.539437 v -0.004 h -0.001 a 7.1639056,4.2243676 0 0 0 3.582211,3.65817 7.1639056,4.2243676 0 0 0 7.163903,0 7.1639056,4.2243676 0 0 0 3.581694,-3.65404 z"
       style="fill:#272420;fill-opacity:0.53112602;stroke-width:0.29877;stroke-opacity:0.528477"
       id="path20" /><path
       d="m 25.70024,24.939046 a 7.1669998,4.224298 0 0 0 -7.167004,4.224549 h 0.0062 v -0.0026 H 32.867244 A 7.1669998,4.224298 0 0 0 25.70024,24.939046 Z"
       style="fill:#272420;fill-opacity:0.53112602;stroke-width:0.29884;stroke-opacity:0.528477"
       id="path18" /></g><g
     id="g25"
     transform="translate(-15.171454,-0.26315222)"><path
       d="m 32.867244,29.161011 a 7.1669998,4.224298 0 0 1 0,0.0026 H 25.70024 18.539437 v 84.851159 h 7.16287 7.164421 a 7.1639056,4.2243676 0 0 1 -5.17e-4,0.004 h 0.0036 V 29.161011 Z"
       style="fill:#e3f6f8;fill-opacity:0.53112602;stroke-width:0.264583;stroke-opacity:0.527152"
       id="path23" /><path
       d="M 32.866211,114.01888 H 18.539437 v -0.004 h -0.001 a 7.1639056,4.2243676 0 0 0 3.582211,3.65817 7.1639056,4.2243676 0 0 0 7.163903,0 7.1639056,4.2243676 0 0 0 3.581694,-3.65404 z"
       style="fill:#e3f7f9;fill-opacity:0.53112602;stroke-width:0.29877;stroke-opacity:0.528477"
       id="path24" /><path
       d="m 25.70024,24.939046 a 7.1669998,4.224298 0 0 0 -7.167004,4.224549 h 0.0062 v -0.0026 H 32.867244 A 7.1669998,4.224298 0 0 0 25.70024,24.939046 Z"
       style="fill:#e2f5f8;fill-opacity:0.53112602;stroke-width:0.29884;stroke-opacity:0.528477"
       id="path25" /></g><ellipse
     style="fill:#262220;fill-opacity:0.53112602;stroke:none;stroke-width:0.264583;stroke-opacity:0.528477"
     id="path26"
     cx="63.109737"
     cy="19.95484"
     rx="4.730412"
     ry="4.9331436" /><ellipse
     style="fill:#fdfbf6;fill-opacity:0.80132449;stroke:none;stroke-width:0.264583;stroke-opacity:0.528477"
     id="ellipse27"
     cx="40.524132"
     cy="19.877092"
     rx="4.730412"
     ry="4.9331436" /><ellipse
     style="fill:#e2f4f8;fill-opacity:0.52941179;stroke:none;stroke-width:0.264583;stroke-opacity:0.528477"
     id="ellipse28"
     cx="17.938524"
     cy="19.915966"
     rx="4.730412"
     ry="4.9331436" /><g
     id="g30"
     transform="translate(29.993447,-0.26315222)"
     style="fill:#272420;fill-opacity:0.53112602"><path
       d="m 32.867244,29.161011 a 7.1669998,4.224298 0 0 1 0,0.0026 H 25.70024 18.539437 v 84.851159 h 7.16287 7.164421 a 7.1639056,4.2243676 0 0 1 -5.17e-4,0.004 h 0.0036 V 29.161011 Z"
       style="fill:#272420;fill-opacity:0.53112602;stroke-width:0.264583;stroke-opacity:0.527152"
       id="path28" /><path
       d="M 32.866211,114.01888 H 18.539437 v -0.004 h -0.001 a 7.1639056,4.2243676 0 0 0 3.582211,3.65817 7.1639056,4.2243676 0 0 0 7.163903,0 7.1639056,4.2243676 0 0 0 3.581694,-3.65404 z"
       style="fill:#272420;fill-opacity:0.53112602;stroke-width:0.29877;stroke-opacity:0.528477"
       id="path29" /><path
       d="m 25.70024,24.939046 a 7.1669998,4.224298 0 0 0 -7.167004,4.224549 h 0.0062 v -0.0026 H 32.867244 A 7.1669998,4.224298 0 0 0 25.70024,24.939046 Z"
       style="fill:#272420;fill-opacity:0.53112602;stroke-width:0.29884;stroke-opacity:0.528477"
       id="path30" /></g><g
     id="g33"
     transform="translate(14.93848,-0.26315222)"><path
       d="m 32.867244,29.161011 a 7.1669998,4.224298 0 0 1 0,0.0026 H 25.70024 18.539437 v 84.851159 h 7.16287 7.164421 a 7.1639056,4.2243676 0 0 1 -5.17e-4,0.004 h 0.0036 V 29.161011 Z"
       style="fill:#e3f5f7;fill-opacity:0.53112602;stroke-width:0.264583;stroke-opacity:0.527152"
       id="path31" /><path
       d="M 32.866211,114.01888 H 18.539437 v -0.004 h -0.001 a 7.1639056,4.2243676 0 0 0 3.582211,3.65817 7.1639056,4.2243676 0 0 0 7.163903,0 7.1639056,4.2243676 0 0 0 3.581694,-3.65404 z"
       style="fill:#e3f6f7;fill-opacity:0.53112602;stroke-width:0.29877;stroke-opacity:0.528477"
       id="path32" /><path
       d="m 25.70024,24.939046 a 7.1669998,4.224298 0 0 0 -7.167004,4.224549 h 0.0062 v -0.0026 H 32.867244 A 7.1669998,4.224298 0 0 0 25.70024,24.939046 Z"
       style="fill:#e3f6f7;fill-opacity:0.53112602;stroke-width:0.29884;stroke-opacity:0.528477"
       id="path33" /></g><g
     id="g36"
     transform="translate(45.048414,-0.26315222)"><path
       d="m 32.867244,29.161011 a 7.1669998,4.224298 0 0 1 0,0.0026 H 25.70024 18.539437 v 84.851159 h 7.16287 7.164421 a 7.1639056,4.2243676 0 0 1 -5.17e-4,0.004 h 0.0036 V 29.161011 Z"
       style="fill:#e2f5f8;fill-opacity:0.53112602;stroke-width:0.264583;stroke-opacity:0.527152"
       id="path34" /><path
       d="M 32.866211,114.01888 H 18.539437 v -0.004 h -0.001 a 7.1639056,4.2243676 0 0 0 3.582211,3.65817 7.1639056,4.2243676 0 0 0 7.163903,0 7.1639056,4.2243676 0 0 0 3.581694,-3.65404 z"
       style="fill:#e2f4f8;fill-opacity:0.53112602;stroke-width:0.29877;stroke-opacity:0.528477"
       id="path35" /><path
       d="m 25.70024,24.939046 a 7.1669998,4.224298 0 0 0 -7.167004,4.224549 h 0.0062 v -0.0026 H 32.867244 A 7.1669998,4.224298 0 0 0 25.70024,24.939046 Z"
       style="fill:#e2f7f8;fill-opacity:0.53112602;stroke-width:0.29884;stroke-opacity:0.528477"
       id="path36" /></g><rect
     style="mix-blend-mode:difference;fill:#026a01;fill-opacity:0.55894041;stroke-width:0.242934;stroke-opacity:0.528477;opacity:0.75857687"
     id="rect53"
     width="74.188873"
     height="29.057306"
     x="3.5455666"
     y="78.361992"
     rx="3.8640034"
     ry="4.560564" /></svg>
