<?xml version="1.0" encoding="UTF-8" standalone="no"?>
<svg
   viewBox="0 0 20.32 128.49998"
   width="20.32mm"
   height="128.49998mm"
   version="1.1"
   id="svg5"
   sodipodi:docname="KI1H-KAOS.svg"
   inkscape:version="1.4.2 (ebf0e940, 2025-05-08)"
   xmlns:inkscape="http://www.inkscape.org/namespaces/inkscape"
   xmlns:sodipodi="http://sodipodi.sourceforge.net/DTD/sodipodi-0.dtd"
   xmlns="http://www.w3.org/2000/svg"
   xmlns:svg="http://www.w3.org/2000/svg">
  <sodipodi:namedview
     id="namedview1"
     pagecolor="#505050"
     bordercolor="#ffffff"
     borderopacity="1"
     inkscape:showpageshadow="0"
     inkscape:pageopacity="0"
     inkscape:pagecheckerboard="1"
     inkscape:deskcolor="#505050"
     inkscape:document-units="mm"
     inkscape:zoom="1.3862214"
     inkscape:cx="264.02709"
     inkscape:cy="256.45254"
     inkscape:window-width="1728"
     inkscape:window-height="1056"
     inkscape:window-x="0"
     inkscape:window-y="61"
     inkscape:window-maximized="0"
     inkscape:current-layer="layer2" />
  <defs
     id="defs1" />
  <g
     transform="matrix(0.06700661,0,0,0.26458333,-60.498354,-78.639361)"
     id="g5">
    <g
       id="g4"
       transform="matrix(1.0034568,0,0,1,-3.1210433,-0.64402784)">
      <g
         id="g1"
         transform="matrix(0.9715842,0,0,1,56.701035,1.2880551)">
        <path
           d="m 1186.0137,296.57561 c 0,0 -315.09543,0 -315.09543,0 0,0 0,485.66924 0,485.66924 0,0 315.09543,0 315.09543,0 z"
           fill="#8ac68a"
           id="path1"
           style="display:inline;fill:#000000;stroke-width:1.16023" />
      </g>
    </g>
  </g>
  <g
     inkscape:groupmode="layer"
     id="layer2"
     inkscape:label="label">
    <rect
       style="fill:#aade87;stroke-width:0.118131"
       id="rect7"
       width="15.122692"
       height="122"
       x="2.5986538"
       y="-125.21387"
       ry="10.968067"
       transform="scale(1,-1)" />
    <rect
       style="fill:#c6e9af;stroke:#f9f9f9;stroke-width:0.146363"
       id="rect8"
       width="13.07325"
       height="4.4567027"
       x="3.6233749"
       y="4.0456657" />
    <path
       d="M 8.4345237,7.2529297 H 8.0360985 L 7.1229759,6.2250855 6.8935326,6.4700318 V 7.2529297 H 6.5865745 V 4.9445435 H 6.8935326 V 6.1491211 L 8.0143944,4.9445435 H 8.3864647 L 7.3555199,6.0297486 Z m 1.5735473,0 H 9.7181662 V 7.0684448 q -0.038757,0.026355 -0.1054199,0.074414 -0.065112,0.046509 -0.1271241,0.074414 -0.072864,0.035657 -0.1674316,0.058911 -0.094568,0.024805 -0.2216919,0.024805 -0.2340942,0 -0.396875,-0.1550293 Q 8.536843,6.9909302 8.536843,6.7506348 q 0,-0.1968872 0.083716,-0.3178101 0.085266,-0.1224731 0.2418457,-0.1922363 0.1581299,-0.069763 0.3798218,-0.094568 0.2216918,-0.024805 0.4759399,-0.037207 V 6.063855 q 0,-0.099219 -0.035657,-0.1643311 Q 9.648403,5.8344116 9.5832907,5.7972046 9.521279,5.7615479 9.4344626,5.7491455 9.3476462,5.7367432 9.2530783,5.7367432 q -0.1147217,0 -0.2557983,0.031006 -0.1410767,0.029456 -0.2914551,0.086816 H 8.690322 v -0.296106 q 0.085266,-0.023254 0.2464965,-0.05116 0.1612305,-0.027905 0.3178101,-0.027905 0.1829346,0 0.3178101,0.031006 0.1364257,0.029456 0.2356445,0.1023194 0.097668,0.071313 0.1488281,0.1844848 0.05116,0.1131714 0.05116,0.280603 z M 9.7181662,6.8265991 V 6.344458 q -0.1333252,0.00775 -0.3147095,0.023254 -0.179834,0.015503 -0.2852539,0.044958 -0.1255737,0.035657 -0.2030884,0.1116211 -0.077515,0.074414 -0.077515,0.206189 0,0.1488281 0.089917,0.2247924 0.089917,0.074414 0.2744018,0.074414 0.153479,0 0.2806031,-0.058911 0.127124,-0.060461 0.2356445,-0.1441773 z M 12.045156,6.3878662 q 0,0.42323 -0.217041,0.6681763 -0.217041,0.2449463 -0.58136,0.2449463 -0.36742,0 -0.584461,-0.2449463 -0.21549,-0.2449463 -0.21549,-0.6681763 0,-0.42323 0.21549,-0.6681762 0.217041,-0.2464966 0.584461,-0.2464966 0.364319,0 0.58136,0.2464966 0.217041,0.2449462 0.217041,0.6681762 z m -0.300757,0 q 0,-0.3364135 -0.131775,-0.4991943 -0.131775,-0.1643311 -0.365869,-0.1643311 -0.237195,0 -0.36897,0.1643311 -0.130225,0.1627808 -0.130225,0.4991943 0,0.3255615 0.131775,0.4945435 0.131775,0.1674316 0.36742,0.1674316 0.232544,0 0.364319,-0.1658813 0.133325,-0.1674317 0.133325,-0.4960938 z m 1.989026,0.3658692 q 0,0.2371948 -0.196887,0.3891235 -0.195337,0.1519287 -0.534851,0.1519287 -0.192237,0 -0.353467,-0.044958 -0.15968,-0.046509 -0.268201,-0.100769 V 6.8219482 h 0.0155 q 0.137976,0.1038697 0.306958,0.1658814 0.168982,0.060461 0.324011,0.060461 0.192237,0 0.300757,-0.062012 0.108521,-0.062012 0.108521,-0.1953369 0,-0.1023193 -0.05891,-0.1550293 -0.05891,-0.05271 -0.226343,-0.089917 -0.06201,-0.013953 -0.162781,-0.032556 -0.09922,-0.018604 -0.181384,-0.040308 -0.227893,-0.060461 -0.324011,-0.1767334 -0.09457,-0.1178222 -0.09457,-0.2883544 0,-0.1069703 0.04341,-0.2015381 0.04496,-0.094568 0.134875,-0.168982 0.08682,-0.072864 0.220142,-0.1147216 0.134875,-0.043408 0.300757,-0.043408 0.155029,0 0.313159,0.038757 0.15968,0.037207 0.2651,0.091467 V 5.921228 h -0.0155 q -0.111621,-0.082166 -0.271301,-0.137976 -0.15968,-0.057361 -0.313159,-0.057361 -0.159681,0 -0.269751,0.062012 -0.110071,0.060461 -0.110071,0.1813842 0,0.1069702 0.06666,0.1612305 0.06511,0.05426 0.21084,0.088367 0.08062,0.018604 0.179834,0.037207 0.100769,0.018604 0.167432,0.034107 0.203088,0.046509 0.313159,0.1596801 0.110071,0.1147217 0.110071,0.3038575 z"
       id="text1"
       style="font-size:3.175px;fill-opacity:0;stroke:#24221c;stroke-width:0.264583"
       aria-label="Kaos" />
  </g>
  <g
     inkscape:groupmode="layer"
     id="layer1"
     inkscape:label="grid"
     style="display:inline" />
</svg>
