<?xml version="1.0" encoding="UTF-8" standalone="no"?>
<svg
   viewBox="0 0 81.279998 128.49998"
   width="81.279999mm"
   height="128.49998mm"
   version="1.1"
   id="svg5"
   sodipodi:docname="KI1H-ENVELOPE.svg"
   inkscape:version="1.4.2 (ebf0e940, 2025-05-08)"
   xmlns:inkscape="http://www.inkscape.org/namespaces/inkscape"
   xmlns:sodipodi="http://sodipodi.sourceforge.net/DTD/sodipodi-0.dtd"
   xmlns="http://www.w3.org/2000/svg"
   xmlns:svg="http://www.w3.org/2000/svg">
  <sodipodi:namedview
     id="namedview1"
     pagecolor="#505050"
     bordercolor="#ffffff"
     borderopacity="1"
     inkscape:showpageshadow="0"
     inkscape:pageopacity="0"
     inkscape:pagecheckerboard="1"
     inkscape:deskcolor="#505050"
     inkscape:document-units="mm"
     inkscape:zoom="1.3862214"
     inkscape:cx="253.20631"
     inkscape:cy="260.05947"
     inkscape:window-width="1728"
     inkscape:window-height="1084"
     inkscape:window-x="0"
     inkscape:window-y="33"
     inkscape:window-maximized="0"
     inkscape:current-layer="svg5" />
  <defs
     id="defs1" />
  <g
     transform="matrix(0.26458333,0,0,0.26458333,-238.88474,-78.639361)"
     id="g5">
    <g
       id="g4"
       transform="matrix(1.0034568,0,0,1,-3.1210433,-0.64402784)">
      <g
         id="g1"
         transform="matrix(0.9715842,0,0,1,56.701035,1.2880551)">
        <path
           d="m 1186.0137,296.57561 c 0,0 -315.09542,0 -315.09542,0 0,0 0,485.66924 0,485.66924 0,0 315.09542,0 315.09542,0 z"
           fill="#8ac68a"
           id="path1"
           style="fill:#000000;stroke-width:1.16023" />
      </g>
    </g>
  </g>
  <rect
     style="fill:#aade87;stroke-width:0.265171"
     id="rect7"
     width="76.199997"
     height="122"
     x="2.5280082"
     y="3.2138767"
     ry="10.968067" />
  <rect
     style="fill:#c6e9af;stroke:#f9f9f9;stroke-width:0.264554"
     id="rect8"
     width="43.875443"
     height="4.3385124"
     x="18.702284"
     y="4.1047616" />
  <path
     d="M 34.35589,7.0620632 H 32.835052 V 4.753677 h 1.520838 v 0.2728516 h -1.21388 v 0.6325195 h 1.21388 v 0.2728516 h -1.21388 v 0.857312 h 1.21388 z m 1.911511,0 H 35.975946 V 6.0760769 q 0,-0.1193726 -0.01395,-0.2232422 -0.01395,-0.1054199 -0.05116,-0.164331 -0.03876,-0.065112 -0.111621,-0.096118 -0.07286,-0.032556 -0.189136,-0.032556 -0.119373,0 -0.249597,0.058911 -0.130225,0.058911 -0.249597,0.1503784 V 7.0620632 H 34.819427 V 5.330386 h 0.291456 v 0.1922363 q 0.136425,-0.1131714 0.282153,-0.1767334 0.145727,-0.063562 0.299206,-0.063562 0.280603,0 0.427881,0.1689819 0.147278,0.168982 0.147278,0.486792 z M 38.295184,5.330386 37.594452,7.0620632 H 37.301446 L 36.605365,5.330386 h 0.31626 l 0.536401,1.3782104 0.53175,-1.3782104 z m 1.802991,0.8960693 h -1.275891 q 0,0.1596802 0.04806,0.2790527 0.04806,0.1178223 0.131775,0.1937867 0.08061,0.074414 0.190686,0.1116211 0.111621,0.037207 0.244946,0.037207 0.176734,0 0.355017,-0.069763 0.179834,-0.071313 0.255799,-0.1395264 h 0.0155 v 0.3178101 q -0.147278,0.062012 -0.300757,0.1038696 -0.153479,0.041858 -0.322461,0.041858 -0.430982,0 -0.672827,-0.2325439 -0.241846,-0.2340942 -0.241846,-0.6635254 0,-0.4247803 0.230994,-0.6743774 0.232544,-0.2495972 0.610815,-0.2495972 0.350366,0 0.539502,0.2046387 0.190686,0.2046387 0.190686,0.5813598 z M 39.814471,6.0032131 q -0.0015,-0.2294433 -0.116272,-0.355017 -0.113171,-0.1255738 -0.345715,-0.1255738 -0.234094,0 -0.37362,0.1379761 -0.137977,0.1379761 -0.15658,0.3426147 z m 1.020093,1.0588501 H 40.543109 V 4.6498074 h 0.291455 z m 2.052588,-0.8650634 q 0,0.4232299 -0.217041,0.6681762 -0.217041,0.2449463 -0.58136,0.2449463 -0.367419,0 -0.58446,-0.2449463 Q 41.2888,6.6202297 41.2888,6.1969998 q 0,-0.42323 0.215491,-0.6681763 0.217041,-0.2464966 0.58446,-0.2464966 0.364319,0 0.58136,0.2464966 0.217041,0.2449463 0.217041,0.6681763 z m -0.300757,0 q 0,-0.3364136 -0.131775,-0.4991944 -0.131775,-0.164331 -0.365869,-0.164331 -0.237195,0 -0.36897,0.164331 -0.130224,0.1627808 -0.130224,0.4991944 0,0.3255615 0.131775,0.4945434 0.131774,0.1674316 0.367419,0.1674316 0.232544,0 0.364319,-0.1658813 0.133325,-0.1674316 0.133325,-0.4960937 z m 2.27583,-0.021704 q 0,0.2108398 -0.06046,0.3860229 -0.06046,0.1736328 -0.170532,0.2945557 -0.10232,0.1147216 -0.241846,0.1782836 -0.137976,0.062012 -0.293005,0.062012 -0.134876,0 -0.244947,-0.029456 -0.10852,-0.029456 -0.221692,-0.091467 V 7.7007839 H 43.338287 V 5.330386 h 0.291455 v 0.1813843 q 0.116272,-0.097669 0.26045,-0.1627808 0.145727,-0.066663 0.310058,-0.066663 0.313159,0 0.486792,0.2371948 0.175183,0.2356446 0.175183,0.655774 z m -0.300757,0.00775 q 0,-0.3131592 -0.10697,-0.4681885 -0.10697,-0.1550292 -0.328662,-0.1550292 -0.125574,0 -0.252698,0.05426 -0.127124,0.05426 -0.243396,0.142627 V 6.738052 q 0.124024,0.055811 0.212391,0.075964 0.08992,0.020154 0.203088,0.020154 0.243396,0 0.379822,-0.1643311 0.136425,-0.1643311 0.136425,-0.486792 z m 2.204517,0.043408 h -1.275891 q 0,0.1596802 0.04806,0.2790527 0.04806,0.1178223 0.131775,0.1937867 0.08062,0.074414 0.190686,0.1116211 0.111621,0.037207 0.244947,0.037207 0.176733,0 0.355017,-0.069763 0.179834,-0.071313 0.255798,-0.1395264 h 0.0155 v 0.3178101 q -0.147278,0.062012 -0.300757,0.1038696 -0.153479,0.041858 -0.322461,0.041858 -0.430981,0 -0.672827,-0.2325439 -0.241846,-0.2340942 -0.241846,-0.6635254 0,-0.4247803 0.230994,-0.6743774 0.232544,-0.2495972 0.610815,-0.2495972 0.350367,0 0.539502,0.2046387 0.190686,0.2046387 0.190686,0.5813598 z M 46.482282,6.0032131 q -0.0015,-0.2294433 -0.116272,-0.355017 -0.113172,-0.1255738 -0.345715,-0.1255738 -0.234095,0 -0.373621,0.1379761 -0.137976,0.1379761 -0.15658,0.3426147 z m 1.962671,0.5596558 q 0,0.2371948 -0.196887,0.3891235 -0.195337,0.1519287 -0.534852,0.1519287 -0.192236,0 -0.353466,-0.044958 -0.15968,-0.046509 -0.268201,-0.100769 V 6.6310818 h 0.0155 q 0.137976,0.1038696 0.306958,0.1658813 0.168982,0.060461 0.324011,0.060461 0.192236,0 0.300757,-0.062012 0.108521,-0.062012 0.108521,-0.1953369 0,-0.1023193 -0.05891,-0.1550293 -0.05891,-0.05271 -0.226342,-0.089917 -0.06201,-0.013953 -0.162781,-0.032556 -0.09922,-0.018604 -0.181384,-0.040308 -0.227893,-0.060461 -0.324012,-0.1767334 -0.09457,-0.1178223 -0.09457,-0.2883545 0,-0.1069702 0.04341,-0.2015381 0.04496,-0.094568 0.134875,-0.1689819 0.08682,-0.072864 0.220142,-0.1147217 0.134875,-0.043408 0.300757,-0.043408 0.155029,0 0.313159,0.038757 0.15968,0.037207 0.2651,0.091467 v 0.3116089 h -0.0155 q -0.111621,-0.082166 -0.271301,-0.1379761 -0.159681,-0.057361 -0.31316,-0.057361 -0.15968,0 -0.26975,0.062012 -0.110071,0.060461 -0.110071,0.1813843 0,0.1069702 0.06666,0.1612304 0.06511,0.05426 0.21084,0.088367 0.08062,0.018604 0.179834,0.037207 0.100769,0.018604 0.167432,0.034106 0.203088,0.046509 0.313159,0.1596802 0.110071,0.1147216 0.110071,0.3038574 z"
     id="text1"
     style="font-size:3.175px;fill-opacity:0;stroke:#24221c;stroke-width:0.264583"
     aria-label="Envelopes" />
</svg>
