<?xml version="1.0" encoding="UTF-8" standalone="no"?>
<svg
   viewBox="0 0 307.20001 485.66929"
   width="81.280006mm"
   height="128.5mm"
   version="1.1"
   id="svg5"
   xmlns="http://www.w3.org/2000/svg"
   xmlns:svg="http://www.w3.org/2000/svg">
  <defs
     id="defs1" />
  <g
     transform="translate(-902.87148,-297.21964)"
     id="g5">
    <g
       id="g4"
       transform="matrix(1.0034568,0,0,1,-3.1210433,-0.64402784)">
      <g
         id="g1"
         transform="matrix(0.9715842,0,0,1,56.701035,1.2880551)">
        <path
           d="m 1186.0137,296.57561 c 0,0 -315.09542,0 -315.09542,0 0,0 0,485.66924 0,485.66924 0,0 315.09542,0 315.09542,0 z"
           fill="#8ac68a"
           id="path1"
           style="fill:#000000;stroke-width:1.16023" />
      </g>
    </g>
  </g>
  <rect
     style="fill:#aade87;stroke-width:1.00222"
     id="rect7"
     width="288"
     height="461.10236"
     x="9.5546513"
     y="12.146927"
     ry="41.454113" />
  <rect
     style="fill:#c6e9af;stroke:#f9f9f9;stroke-width:0.99989"
     id="rect8"
     width="165.82845"
     height="16.397528"
     x="70.685776"
     y="15.51405" />
  <path
     d="m 105.69529,27.570827 h -1.16297 v -7.516814 l -2.43165,5.114715 h -0.69308 l -2.414029,-5.114715 v 7.516814 h -1.086608 v -8.723722 h 1.58586 l 2.331807,4.856928 2.25544,-4.856928 h 1.61523 z m 7.85294,-3.269198 q 0,1.599446 -0.8223,2.525132 -0.8223,0.925688 -2.20258,0.925688 -1.39204,0 -2.21433,-0.925688 -0.81643,-0.925686 -0.81643,-2.525132 0,-1.599448 0.81643,-2.525134 0.82229,-0.931546 2.21433,-0.931546 1.38028,0 2.20258,0.931546 0.8223,0.925686 0.8223,2.525134 z m -1.13947,0 q 0,-1.271356 -0.49925,-1.886528 -0.49926,-0.62103 -1.38616,-0.62103 -0.89866,0 -1.3979,0.62103 -0.49339,0.615172 -0.49339,1.886528 0,1.230343 0.49925,1.868949 0.49926,0.632749 1.39204,0.632749 0.88103,0 1.38028,-0.62689 0.50513,-0.632748 0.50513,-1.874808 z m 8.17011,3.269198 h -1.10423 V 26.88535 q -0.47576,0.410114 -0.99263,0.638607 -0.51687,0.228492 -1.12185,0.228492 -1.17471,0 -1.86779,-0.902252 -0.68721,-0.902252 -0.68721,-2.501698 0,-0.831947 0.23495,-1.482271 0.24081,-0.650325 0.64609,-1.10731 0.39941,-0.445267 0.92802,-0.679619 0.53449,-0.23435 1.10423,-0.23435 0.51687,0 0.91627,0.111316 0.39941,0.105459 0.83992,0.333951 v -2.835649 h 1.10423 z m -1.10423,-1.611165 v -3.755476 q -0.44639,-0.199199 -0.7988,-0.275363 -0.35242,-0.07616 -0.76943,-0.07616 -0.92803,0 -1.4449,0.644466 -0.51687,0.644464 -0.51687,1.827938 0,1.165897 0.3994,1.77521 0.3994,0.603454 1.28043,0.603454 0.46988,0 0.95152,-0.205057 0.48164,-0.210916 0.89865,-0.539008 z m 8.71636,1.611165 h -1.10423 v -0.726489 q -0.55799,0.439409 -1.06898,0.67376 -0.51101,0.234351 -1.12773,0.234351 -1.03374,0 -1.60935,-0.626889 -0.57561,-0.632749 -0.57561,-1.851375 v -4.247614 h 1.10423 v 3.726183 q 0,0.497997 0.047,0.855382 0.047,0.351526 0.1997,0.603454 0.15859,0.257787 0.41114,0.374962 0.25257,0.117175 0.7342,0.117175 0.42877,0 0.93389,-0.222633 0.51101,-0.222633 0.95152,-0.568302 v -4.886221 h 1.10423 z m 3.28919,0 h -1.10423 v -9.11626 h 1.10423 z m 7.28321,0 h -1.09835 v -0.697195 q -0.14685,0.0996 -0.39941,0.281221 -0.24669,0.175763 -0.48163,0.281222 -0.27606,0.134752 -0.63434,0.222633 -0.35829,0.09374 -0.83992,0.09374 -0.8869,0 -1.50363,-0.585878 -0.61673,-0.585877 -0.61673,-1.493989 0,-0.744064 0.31717,-1.20105 0.32305,-0.462843 0.91629,-0.726488 0.59909,-0.263645 1.43901,-0.357386 0.83992,-0.09374 1.80319,-0.14061 v -0.169904 q 0,-0.374963 -0.1351,-0.621031 -0.12922,-0.246069 -0.37591,-0.386679 -0.23494,-0.134753 -0.56386,-0.181622 -0.32892,-0.04687 -0.6872,-0.04687 -0.43465,0 -0.96914,0.117175 -0.53449,0.111317 -1.10423,0.328091 h -0.0588 v -1.119026 q 0.32305,-0.08788 0.9339,-0.19334 0.61085,-0.105458 1.20408,-0.105458 0.69308,0 1.20408,0.117176 0.51687,0.111316 0.89277,0.386679 0.37004,0.269504 0.56387,0.697195 0.19383,0.427691 0.19383,1.060438 z m -1.09835,-1.611165 v -1.82208 q -0.50513,0.02929 -1.19233,0.08788 -0.68134,0.05859 -1.08074,0.169904 -0.47576,0.134753 -0.76944,0.421833 -0.29367,0.281221 -0.29367,0.779217 0,0.562443 0.34066,0.849523 0.34066,0.281222 1.03961,0.281222 0.58149,0 1.06312,-0.222634 0.48164,-0.228493 0.89279,-0.544867 z m 6.63123,1.552577 q -0.31129,0.08203 -0.68133,0.134752 -0.36415,0.05273 -0.65197,0.05273 -1.00437,0 -1.52712,-0.539007 -0.52275,-0.539008 -0.52275,-1.72834 v -3.480115 h -0.74593 v -0.925687 h 0.74593 V 19.1459 h 1.10423 v 1.880668 h 2.27894 v 0.925687 h -2.27894 v 2.982118 q 0,0.515572 0.0235,0.808511 0.0235,0.287081 0.16446,0.539008 0.12921,0.234352 0.35241,0.345668 0.22907,0.105459 0.69309,0.105459 0.27018,0 0.56386,-0.07616 0.29367,-0.08203 0.42289,-0.134753 h 0.0588 z m 2.51976,-7.581259 h -1.24519 v -1.142463 h 1.24519 z m -0.0705,7.639847 h -1.10422 v -6.544256 h 1.10422 z m 7.77659,-3.269198 q 0,1.599446 -0.82229,2.525132 -0.8223,0.925688 -2.20258,0.925688 -1.39204,0 -2.21434,-0.925688 -0.81642,-0.925686 -0.81642,-2.525132 0,-1.599448 0.81642,-2.525134 0.8223,-0.931546 2.21434,-0.931546 1.38028,0 2.20258,0.931546 0.82229,0.925686 0.82229,2.525134 z m -1.13946,0 q 0,-1.271356 -0.49926,-1.886528 -0.49925,-0.62103 -1.38615,-0.62103 -0.89867,0 -1.39791,0.62103 -0.49338,0.615172 -0.49338,1.886528 0,1.230343 0.49925,1.868949 0.49925,0.632749 1.39204,0.632749 0.88102,0 1.38028,-0.62689 0.50513,-0.632748 0.50513,-1.874808 z m 8.33457,3.269198 h -1.10423 v -3.726183 q 0,-0.451127 -0.0529,-0.843664 -0.0529,-0.398397 -0.19383,-0.621032 -0.14684,-0.246068 -0.42289,-0.363244 -0.27606,-0.123034 -0.71658,-0.123034 -0.45227,0 -0.94564,0.222634 -0.49338,0.222633 -0.94565,0.568301 v 4.886222 h -1.10422 v -6.544256 h 1.10422 v 0.726488 q 0.51688,-0.427691 1.069,-0.6679 0.55211,-0.24021 1.1336,-0.24021 1.0631,0 1.6211,0.638607 0.55798,0.638606 0.55798,1.839657 z m 12.79848,-2.489981 q 0,0.509713 -0.24083,1.00771 -0.23493,0.497996 -0.6637,0.843664 -0.46989,0.374962 -1.09836,0.585878 -0.6226,0.210915 -1.50363,0.210915 -0.94565,0 -1.70333,-0.175763 -0.75182,-0.175763 -1.533,-0.521431 v -1.452977 h 0.0822 q 0.66371,0.550725 1.533,0.849522 0.86929,0.298799 1.63285,0.298799 1.08073,0 1.67983,-0.404257 0.60498,-0.404255 0.60498,-1.078014 0,-0.580019 -0.28781,-0.855382 -0.28192,-0.275363 -0.86341,-0.427691 -0.44051,-0.117175 -0.95739,-0.19334 -0.51099,-0.07616 -1.08661,-0.19334 -1.16296,-0.246068 -1.72682,-0.837805 -0.55798,-0.597595 -0.55798,-1.552576 0,-1.095592 0.92801,-1.792786 0.92802,-0.703054 2.3553,-0.703054 0.92215,0 1.69159,0.175763 0.76943,0.175764 1.36266,0.43355 v 1.370954 h -0.0822 q -0.49925,-0.421832 -1.31568,-0.697194 -0.81055,-0.281222 -1.66221,-0.281222 -0.93389,0 -1.50363,0.38668 -0.56386,0.386679 -0.56386,0.995992 0,0.544866 0.28192,0.855382 0.28194,0.310516 0.99263,0.474561 0.37592,0.08203 1.06899,0.199199 0.69308,0.117175 1.17472,0.240209 0.975,0.257786 1.46839,0.779218 0.49338,0.521431 0.49338,1.458836 z m 7.3713,-0.779217 q 0,1.599446 -0.82229,2.525132 -0.8223,0.925688 -2.20258,0.925688 -1.39203,0 -2.21433,-0.925688 -0.81643,-0.925686 -0.81643,-2.525132 0,-1.599448 0.81643,-2.525134 0.8223,-0.931546 2.21433,-0.931546 1.38028,0 2.20258,0.931546 0.82229,0.925686 0.82229,2.525134 z m -1.13946,0 q 0,-1.271356 -0.49926,-1.886528 -0.49925,-0.62103 -1.38615,-0.62103 -0.89865,0 -1.39791,0.62103 -0.49337,0.615172 -0.49337,1.886528 0,1.230343 0.49925,1.868949 0.49924,0.632749 1.39203,0.632749 0.88103,0 1.38028,-0.62689 0.50513,-0.632748 0.50513,-1.874808 z m 8.28758,3.269198 h -1.10423 v -0.726489 q -0.55799,0.439409 -1.06898,0.67376 -0.51101,0.234351 -1.12773,0.234351 -1.03374,0 -1.60935,-0.626889 -0.57561,-0.632749 -0.57561,-1.851375 v -4.247614 h 1.10423 v 3.726183 q 0,0.497997 0.047,0.855382 0.047,0.351526 0.1997,0.603454 0.15858,0.257787 0.41114,0.374962 0.25256,0.117175 0.7342,0.117175 0.42877,0 0.93389,-0.222633 0.51101,-0.222633 0.95152,-0.568302 v -4.886221 h 1.10423 z m 6.26708,-5.343207 h -0.0588 q -0.2467,-0.05859 -0.48163,-0.08203 -0.22908,-0.02929 -0.54625,-0.02929 -0.51099,0 -0.98675,0.228492 -0.47576,0.222634 -0.91627,0.580019 v 4.646012 h -1.10419 v -6.544256 h 1.10423 v 0.966699 q 0.65783,-0.527291 1.15708,-0.744066 0.50513,-0.222633 1.02788,-0.222633 0.2878,0 0.41702,0.01758 0.12921,0.01171 0.38765,0.05273 z m 5.89118,4.933093 q -0.55211,0.263644 -1.05137,0.410114 -0.49337,0.146469 -1.05136,0.146469 -0.71071,0 -1.30393,-0.205057 -0.59323,-0.210916 -1.01612,-0.632748 -0.42877,-0.421832 -0.66372,-1.066298 -0.23494,-0.644465 -0.23494,-1.505706 0,-1.605306 0.88103,-2.519275 0.88691,-0.913969 2.33768,-0.913969 0.56386,0 1.10423,0.158186 0.54623,0.158188 0.9985,0.38668 v 1.224485 h -0.0588 q -0.50513,-0.392538 -1.04549,-0.603454 -0.53449,-0.210917 -1.04549,-0.210917 -0.93976,0 -1.48601,0.632749 -0.54036,0.626889 -0.54036,1.845515 0,1.183473 0.52861,1.82208 0.5345,0.632749 1.49776,0.632749 0.33479,0 0.68134,-0.08788 0.34653,-0.08788 0.62259,-0.228492 0.24081,-0.123035 0.45226,-0.257786 0.21145,-0.140611 0.33479,-0.24021 h 0.0588 z m 6.9073,-2.747768 h -4.83394 q 0,0.603454 0.18208,1.05458 0.18208,0.445267 0.49926,0.732347 0.30543,0.281222 0.72244,0.421833 0.4229,0.140611 0.92803,0.140611 0.66958,0 1.34504,-0.263646 0.68133,-0.269503 0.96913,-0.52729 h 0.0588 v 1.20105 q -0.55799,0.23435 -1.13947,0.392538 -0.58148,0.158187 -1.2217,0.158187 -1.63284,0 -2.54913,-0.878817 -0.91627,-0.884676 -0.91627,-2.507557 0,-1.605306 0.87516,-2.548569 0.88104,-0.943263 2.31419,-0.943263 1.32742,0 2.04399,0.773358 0.72245,0.77336 0.72245,2.197042 z m -1.07487,-0.843664 q -0.006,-0.8671 -0.44051,-1.341661 -0.42877,-0.474561 -1.3098,-0.474561 -0.8869,0 -1.41553,0.521432 -0.52275,0.521431 -0.59323,1.29479 z"
     id="text8"
     style="font-size:12.0139px;fill:#24221c;stroke:#24221c;stroke-width:1.00116"
     aria-label="Modulation Source" />
</svg>
