<?xml version="1.0" encoding="UTF-8" standalone="no"?>
<svg
   viewBox="0 0 307.20001 485.66929"
   width="81.280006mm"
   height="128.5mm"
   version="1.1"
   id="svg5"
   xmlns="http://www.w3.org/2000/svg"
   xmlns:svg="http://www.w3.org/2000/svg">
  <defs
     id="defs1" />
  <g
     transform="translate(-902.87148,-297.21964)"
     id="g5">
    <g
       id="g4"
       transform="matrix(1.0034568,0,0,1,-3.1210433,-0.64402784)">
      <g
         id="g1"
         transform="matrix(0.9715842,0,0,1,56.701035,1.2880551)">
        <path
           d="m 1186.0137,296.57561 c 0,0 -315.09542,0 -315.09542,0 0,0 0,485.66924 0,485.66924 0,0 315.09542,0 315.09542,0 z"
           fill="#8ac68a"
           id="path1"
           style="fill:#000000;stroke-width:1.16023" />
      </g>
    </g>
  </g>
  <rect
     style="fill:#aade87;stroke-width:1.00222"
     id="rect7"
     width="288"
     height="461.10236"
     x="9.5546513"
     y="12.146927"
     ry="41.454113" />
  <rect
     style="fill:#c6e9af;stroke:#f9f9f9;stroke-width:0.99989"
     id="rect8"
     width="165.82845"
     height="16.397528"
     x="70.685776"
     y="15.51405" />
  <path
     d="m 104.66154,26.938078 q -0.32305,0.140611 -0.58735,0.263646 -0.25844,0.123034 -0.68134,0.257786 -0.35828,0.111317 -0.78118,0.187481 -0.41702,0.08203 -0.92214,0.08203 -0.95152,0 -1.732706,-0.263644 -0.77531,-0.269504 -1.350918,-0.837806 -0.563861,-0.556584 -0.881033,-1.411965 -0.317172,-0.861241 -0.317172,-1.997843 0,-1.078016 0.305425,-1.927539 0.305424,-0.849523 0.881033,-1.4354 0.557987,-0.568302 1.345044,-0.8671 0.792927,-0.298798 1.756187,-0.298798 0.70483,0 1.40378,0.169905 0.70483,0.169905 1.56237,0.597596 v 1.376812 h -0.0881 q -0.72245,-0.603454 -1.43315,-0.878817 -0.7107,-0.275362 -1.52125,-0.275362 -0.66371,0 -1.19821,0.216775 -0.528615,0.210916 -0.945638,0.662042 -0.405275,0.439408 -0.634344,1.113168 -0.223195,0.6679 -0.223195,1.546718 0,0.919827 0.246689,1.581869 0.252563,0.662043 0.646091,1.078016 0.41115,0.433549 0.957387,0.644465 0.55211,0.205058 1.16296,0.205058 0.83992,0 1.57412,-0.28708 0.7342,-0.287081 1.37441,-0.861241 h 0.0822 z m 7.14811,-2.636449 q 0,1.599446 -0.82229,2.525132 -0.8223,0.925688 -2.20258,0.925688 -1.39204,0 -2.21433,-0.925688 -0.81643,-0.925686 -0.81643,-2.525132 0,-1.599448 0.81643,-2.525134 0.82229,-0.931546 2.21433,-0.931546 1.38028,0 2.20258,0.931546 0.82229,0.925686 0.82229,2.525134 z m -1.13946,0 q 0,-1.271356 -0.49926,-1.886528 -0.49925,-0.62103 -1.38615,-0.62103 -0.89865,0 -1.39791,0.62103 -0.49337,0.615172 -0.49337,1.886528 0,1.230343 0.49924,1.868949 0.49925,0.632749 1.39204,0.632749 0.88103,0 1.38028,-0.62689 0.50513,-0.632748 0.50513,-1.874808 z m 12.42257,3.269198 h -1.10423 v -3.726183 q 0,-0.421833 -0.0412,-0.814371 -0.0352,-0.392538 -0.15859,-0.626889 -0.13509,-0.251928 -0.38764,-0.38082 -0.25257,-0.128894 -0.72833,-0.128894 -0.46401,0 -0.92802,0.234351 -0.46401,0.228493 -0.92803,0.585878 0.0176,0.134752 0.0293,0.316374 0.0117,0.175763 0.0117,0.351527 v 4.189027 h -1.10423 v -3.726183 q 0,-0.43355 -0.0412,-0.82023 -0.0352,-0.392538 -0.15859,-0.626889 -0.13509,-0.251927 -0.38765,-0.374961 -0.25256,-0.128894 -0.72832,-0.128894 -0.45227,0 -0.91041,0.222634 -0.45226,0.222633 -0.90453,0.568301 v 4.886222 h -1.10421 v -6.544256 h 1.10421 v 0.726488 q 0.51689,-0.427691 1.02788,-0.6679 0.51687,-0.24021 1.09835,-0.24021 0.66959,0 1.1336,0.281221 0.46989,0.281222 0.69896,0.779217 0.66958,-0.562442 1.2217,-0.808511 0.55211,-0.251927 1.18058,-0.251927 1.08073,0 1.59173,0.656183 0.51687,0.650324 0.51687,1.822081 z m 7.89993,-3.351222 q 0,0.796794 -0.22907,1.458837 -0.22907,0.656183 -0.64609,1.113167 -0.38766,0.433549 -0.91628,0.67376 -0.52274,0.234351 -1.1101,0.234351 -0.511,0 -0.92802,-0.111317 -0.41115,-0.111317 -0.83992,-0.345668 v 2.741909 h -1.10423 v -8.958073 h 1.10423 v 0.685477 q 0.44052,-0.369103 0.98675,-0.615172 0.55212,-0.251927 1.17472,-0.251927 1.18645,0 1.84429,0.896393 0.66372,0.890534 0.66372,2.478263 z m -1.13948,0.02929 q 0,-1.183474 -0.40527,-1.769351 -0.40528,-0.585878 -1.24519,-0.585878 -0.47576,0 -0.95739,0.205058 -0.48163,0.205056 -0.92215,0.539007 v 3.708607 q 0.46988,0.210916 0.80467,0.28708 0.34067,0.07616 0.76944,0.07616 0.92215,0 1.43902,-0.62103 0.51687,-0.621031 0.51687,-1.839657 z m 3.9764,3.321928 h -1.10422 v -9.11626 h 1.10422 z m 7.67674,-3.157882 h -4.83393 q 0,0.603454 0.18208,1.05458 0.18208,0.445267 0.49924,0.732347 0.30543,0.281222 0.72245,0.421833 0.4229,0.140611 0.92802,0.140611 0.66959,0 1.34504,-0.263646 0.68134,-0.269503 0.96914,-0.52729 h 0.0588 v 1.20105 q -0.55798,0.23435 -1.13947,0.392538 -0.58148,0.158187 -1.22169,0.158187 -1.63286,0 -2.54913,-0.878817 -0.91628,-0.884676 -0.91628,-2.507557 0,-1.605306 0.87517,-2.548569 0.88103,-0.943263 2.31418,-0.943263 1.32742,0 2.04399,0.773358 0.72245,0.77336 0.72245,2.197042 z m -1.07486,-0.843664 q -0.006,-0.8671 -0.44052,-1.341661 -0.42877,-0.474561 -1.30981,-0.474561 -0.8869,0 -1.41552,0.521432 -0.52274,0.521431 -0.59322,1.29479 z m 8.42855,4.001546 H 147.468 l -1.86191,-2.513417 -1.87367,2.513417 h -1.28631 l 2.56088,-3.26334 -2.53738,-3.280916 h 1.39204 l 1.85016,2.472404 1.85604,-2.472404 h 1.29219 l -2.57849,3.222328 z m 12.27573,-7.721871 q 0.53449,0.585879 0.81642,1.435401 0.28781,0.849523 0.28781,1.927538 0,1.078015 -0.29368,1.933397 -0.28781,0.849523 -0.81055,1.417825 -0.54037,0.591736 -1.28043,0.890534 -0.7342,0.298798 -1.67984,0.298798 -0.92215,0 -1.67984,-0.304656 -0.75182,-0.304657 -1.28044,-0.884676 -0.52861,-0.580019 -0.81642,-1.423683 -0.28193,-0.843665 -0.28193,-1.927539 0,-1.066297 0.28193,-1.909961 0.28193,-0.849524 0.8223,-1.452978 0.51687,-0.57416 1.28043,-0.878817 0.76944,-0.304656 1.67397,-0.304656 0.93976,0 1.6857,0.310515 0.75182,0.304657 1.27457,0.872958 z m -0.10573,3.362939 q 0,-1.699046 -0.76356,-2.618874 -0.76356,-0.925687 -2.08511,-0.925687 -1.3333,0 -2.09686,0.925687 -0.75768,0.919828 -0.75768,2.618874 0,1.716623 0.7753,2.630592 0.77531,0.90811 2.07924,0.90811 1.30393,0 2.07337,-0.90811 0.7753,-0.913969 0.7753,-2.630592 z m 7.65325,2.472405 q 0,0.896394 -0.74594,1.470553 -0.74007,0.57416 -2.02638,0.57416 -0.72832,0 -1.33917,-0.169903 -0.60498,-0.175764 -1.01613,-0.380822 v -1.236202 h 0.0588 q 0.52274,0.392539 1.16296,0.626889 0.64022,0.228493 1.22758,0.228493 0.72831,0 1.13946,-0.234351 0.41116,-0.234351 0.41116,-0.738206 0,-0.38668 -0.2232,-0.585879 -0.2232,-0.199198 -0.85754,-0.339808 -0.23494,-0.05272 -0.61672,-0.123034 -0.37591,-0.0703 -0.68721,-0.152329 -0.86341,-0.228493 -1.22757,-0.667901 -0.35829,-0.445267 -0.35829,-1.089732 0,-0.404256 0.16446,-0.761642 0.17033,-0.357385 0.511,-0.638607 0.32891,-0.275362 0.83404,-0.43355 0.511,-0.164045 1.13947,-0.164045 0.58736,0 1.18646,0.14647 0.60498,0.14061 1.00438,0.345667 v 1.177615 h -0.0588 q -0.42291,-0.310516 -1.02788,-0.521432 -0.60498,-0.216775 -1.18646,-0.216775 -0.60497,0 -1.022,0.234352 -0.41702,0.228492 -0.41702,0.685477 0,0.404256 0.25257,0.609313 0.24669,0.205057 0.7988,0.33395 0.30543,0.0703 0.68133,0.140611 0.38178,0.0703 0.63435,0.128893 0.76943,0.175763 1.18645,0.603454 0.41703,0.43355 0.41703,1.148321 z m 6.43154,1.476413 q -0.55211,0.263644 -1.05137,0.410114 -0.49338,0.146469 -1.05137,0.146469 -0.7107,0 -1.30393,-0.205057 -0.59322,-0.210916 -1.01612,-0.632748 -0.42877,-0.421832 -0.66371,-1.066298 -0.23495,-0.644465 -0.23495,-1.505706 0,-1.605306 0.88104,-2.519275 0.88691,-0.913969 2.33767,-0.913969 0.56386,0 1.10423,0.158186 0.54624,0.158188 0.99851,0.38668 v 1.224485 h -0.0588 q -0.50513,-0.392538 -1.04549,-0.603454 -0.53449,-0.210917 -1.04549,-0.210917 -0.93978,0 -1.48602,0.632749 -0.54037,0.626889 -0.54037,1.845515 0,1.183473 0.52863,1.82208 0.53449,0.632749 1.49776,0.632749 0.33479,0 0.68132,-0.08788 0.34655,-0.08788 0.62261,-0.228492 0.24081,-0.123035 0.45226,-0.257786 0.21144,-0.140611 0.33479,-0.24021 h 0.0588 z m 2.60198,-7.229733 h -1.24519 v -1.142463 h 1.24519 z m -0.0705,7.639847 h -1.10423 V 21.02657 h 1.10423 z m 3.30093,0 h -1.10423 v -9.11626 h 1.10423 z m 3.30095,0 h -1.10423 v -9.11626 h 1.10423 z m 7.2832,0 h -1.09835 v -0.697195 q -0.14684,0.0996 -0.3994,0.281221 -0.24669,0.175763 -0.48164,0.281222 -0.27606,0.134752 -0.63434,0.222633 -0.35829,0.09374 -0.83992,0.09374 -0.88691,0 -1.50363,-0.585878 -0.61672,-0.585877 -0.61672,-1.493989 0,-0.744064 0.31717,-1.20105 0.32304,-0.462843 0.91627,-0.726488 0.5991,-0.263645 1.43902,-0.357386 0.83993,-0.09374 1.80319,-0.14061 v -0.169904 q 0,-0.374963 -0.1351,-0.621031 -0.12921,-0.246069 -0.3759,-0.386679 -0.23495,-0.134753 -0.56386,-0.181622 -0.32893,-0.04687 -0.68721,-0.04687 -0.43464,0 -0.96914,0.117175 -0.53449,0.111317 -1.10423,0.328091 h -0.0588 v -1.119026 q 0.32305,-0.08788 0.93389,-0.19334 0.61085,-0.105458 1.20408,-0.105458 0.69308,0 1.20409,0.117176 0.51687,0.111316 0.89277,0.386679 0.37004,0.269504 0.56386,0.697195 0.19383,0.427691 0.19383,1.060438 z m -1.09835,-1.611165 v -1.822079 q -0.50513,0.02929 -1.19234,0.08788 -0.68133,0.05859 -1.08073,0.169904 -0.47576,0.134753 -0.76944,0.421833 -0.29367,0.281221 -0.29367,0.779217 0,0.562443 0.34066,0.849523 0.34067,0.281222 1.03962,0.281222 0.58148,0 1.06312,-0.222634 0.48162,-0.228493 0.89278,-0.544866 z m 6.63124,1.552577 q -0.31131,0.08203 -0.68133,0.134752 -0.36417,0.05273 -0.65197,0.05273 -1.00438,0 -1.52712,-0.539007 -0.52275,-0.539008 -0.52275,-1.72834 v -3.480115 h -0.74594 v -0.925687 h 0.74594 v -1.880671 h 1.10423 v 1.880668 h 2.27894 v 0.925687 h -2.27894 v 2.982118 q 0,0.515572 0.0235,0.808511 0.0235,0.287081 0.16447,0.539008 0.12921,0.234352 0.35241,0.345668 0.22907,0.105459 0.69307,0.105459 0.27019,0 0.56387,-0.07616 0.29367,-0.08203 0.42289,-0.134753 h 0.0588 z m 6.92492,-3.21061 q 0,1.599446 -0.8223,2.525132 -0.8223,0.925688 -2.20258,0.925688 -1.39204,0 -2.21433,-0.925688 -0.81643,-0.925686 -0.81643,-2.525132 0,-1.599448 0.81643,-2.525134 0.82229,-0.931546 2.21433,-0.931546 1.38028,0 2.20258,0.931546 0.8223,0.925686 0.8223,2.525134 z m -1.13947,0 q 0,-1.271356 -0.49925,-1.886528 -0.49926,-0.62103 -1.38616,-0.62103 -0.89866,0 -1.3979,0.62103 -0.49338,0.615172 -0.49338,1.886528 0,1.230343 0.49924,1.868949 0.49926,0.632749 1.39204,0.632749 0.88103,0 1.38028,-0.62689 0.50513,-0.632748 0.50513,-1.874808 z m 6.94255,-2.074009 h -0.0588 q -0.24669,-0.05859 -0.48163,-0.08203 -0.22907,-0.02929 -0.54624,-0.02929 -0.511,0 -0.98676,0.228492 -0.47576,0.222634 -0.91628,0.580019 v 4.646012 h -1.10423 v -6.544256 h 1.10423 v 0.966699 q 0.65784,-0.527291 1.15709,-0.744066 0.50513,-0.222633 1.02787,-0.222633 0.28781,0 0.41703,0.01758 0.12922,0.01171 0.38766,0.05273 z"
     id="text8"
     style="font-size:12.0139px;fill:#24221c;stroke:#24221c;stroke-width:1.00116"
     aria-label="Complex Oscillator" />
</svg>
