<?xml version="1.0" encoding="UTF-8" standalone="no"?>
<svg
   viewBox="0 0 307.20001 485.66929"
   width="81.280006mm"
   height="128.5mm"
   version="1.1"
   id="svg5"
   xmlns="http://www.w3.org/2000/svg"
   xmlns:svg="http://www.w3.org/2000/svg">
  <defs
     id="defs1" />
  <g
     transform="translate(-902.87148,-297.21964)"
     id="g5">
    <g
       id="g4"
       transform="matrix(1.0034568,0,0,1,-3.1210433,-0.64402784)">
      <g
         id="g1"
         transform="matrix(0.9715842,0,0,1,56.701035,1.2880551)">
        <path
           d="m 1186.0137,296.57561 c 0,0 -315.09542,0 -315.09542,0 0,0 0,485.66924 0,485.66924 0,0 315.09542,0 315.09542,0 z"
           fill="#8ac68a"
           id="path1"
           style="fill:#000000;stroke-width:1.16023" />
      </g>
    </g>
  </g>
  <rect
     style="fill:#aade87;stroke-width:1.00222"
     id="rect7"
     width="288"
     height="461.10236"
     x="9.5546513"
     y="12.146927"
     ry="41.454113" />
  <rect
     style="fill:#c6e9af;stroke:#f9f9f9;stroke-width:0.99989"
     id="rect8"
     width="165.82845"
     height="16.397528"
     x="70.685776"
     y="15.51405" />
  <path
     d="m 126.2573,19.87825 h -4.42279 v 2.460687 h 3.80018 v 1.031146 h -3.80018 v 4.200744 h -1.16296 v -8.723722 h 5.58575 z m 2.42577,0.05273 h -1.2452 v -1.142463 h 1.2452 z m -0.0705,7.639847 h -1.10423 v -6.544256 h 1.10423 z m 3.30094,0 h -1.10423 v -9.11626 h 1.10423 z m 5.59162,-0.05859 q -0.3113,0.08203 -0.68133,0.134752 -0.36416,0.05273 -0.65196,0.05273 -1.00439,0 -1.52713,-0.539007 -0.52274,-0.539008 -0.52274,-1.72834 v -3.480115 h -0.74595 V 21.02657 h 0.74595 v -1.880678 h 1.10423 v 1.880668 h 2.27893 v 0.925687 h -2.27893 v 2.982118 q 0,0.515572 0.0235,0.808511 0.0235,0.287081 0.16445,0.539008 0.12923,0.234352 0.35242,0.345668 0.22906,0.105459 0.69308,0.105459 0.27018,0 0.56386,-0.07616 0.29368,-0.08203 0.4229,-0.134753 h 0.0588 z m 6.82507,-3.099294 h -4.83393 q 0,0.603454 0.18209,1.05458 0.18208,0.445267 0.49925,0.732347 0.30542,0.281222 0.72245,0.421833 0.42289,0.140611 0.92802,0.140611 0.66958,0 1.34504,-0.263646 0.68134,-0.269503 0.96914,-0.52729 h 0.0588 v 1.20105 q -0.55798,0.23435 -1.13947,0.392538 -0.58148,0.158187 -1.2217,0.158187 -1.63284,0 -2.54912,-0.878817 -0.91627,-0.884676 -0.91627,-2.507557 0,-1.605306 0.87516,-2.548569 0.88103,-0.943263 2.31417,-0.943263 1.32743,0 2.04401,0.773358 0.72244,0.77336 0.72244,2.197042 z m -1.07486,-0.843664 q -0.006,-0.8671 -0.44051,-1.341661 -0.42877,-0.474561 -1.30981,-0.474561 -0.88691,0 -1.41552,0.521432 -0.52275,0.521431 -0.59324,1.29479 z m 6.84269,-1.341661 h -0.0588 q -0.24669,-0.05859 -0.48164,-0.08203 -0.22906,-0.02929 -0.54623,-0.02929 -0.51101,0 -0.98677,0.228492 -0.47575,0.222634 -0.91627,0.580019 v 4.646012 h -1.10423 v -6.544256 h 1.10423 v 0.966699 q 0.65784,-0.527291 1.15709,-0.744066 0.50512,-0.222633 1.02787,-0.222633 0.2878,0 0.41703,0.01758 0.12922,0.01171 0.38765,0.05273 z m 11.95269,2.659886 q 0,0.650325 -0.24669,1.148321 -0.24669,0.497996 -0.66372,0.820228 -0.49338,0.38668 -1.08661,0.550725 -0.58734,0.164047 -1.49775,0.164047 h -3.10123 v -8.723722 h 2.59023 q 0.95739,0 1.43315,0.0703 0.47576,0.0703 0.9104,0.292939 0.48163,0.251927 0.69896,0.650324 0.21731,0.392538 0.21731,0.943263 0,0.621031 -0.31717,1.060439 -0.31717,0.43355 -0.84579,0.697194 v 0.04687 q 0.8869,0.181622 1.39791,0.779217 0.511,0.591738 0.511,1.499848 z m -1.9559,-3.931241 q 0,-0.316374 -0.10573,-0.533149 -0.10572,-0.216774 -0.34066,-0.351526 -0.27605,-0.158187 -0.66959,-0.19334 -0.39352,-0.04101 -0.97501,-0.04101 h -1.38615 v 2.519275 h 1.50362 q 0.54625,0 0.8693,-0.05273 0.32303,-0.05859 0.59909,-0.23435 0.27606,-0.175764 0.38766,-0.451127 0.11747,-0.28122 0.11747,-0.662042 z m 0.74595,3.978111 q 0,-0.52729 -0.15859,-0.837805 -0.15859,-0.310516 -0.57561,-0.52729 -0.28193,-0.14647 -0.6872,-0.187481 -0.39941,-0.04687 -0.97502,-0.04687 h -1.82667 v 3.245759 h 1.53887 q 0.76356,0 1.25106,-0.07616 0.48751,-0.08203 0.79881,-0.292938 0.32892,-0.228492 0.48163,-0.521431 0.15272,-0.292939 0.15272,-0.755784 z m 3.88829,2.636451 h -1.10423 v -9.11626 h 1.10423 z m 7.77659,-3.269198 q 0,1.599446 -0.82231,2.525132 -0.82229,0.925688 -2.20258,0.925688 -1.39203,0 -2.21433,-0.925688 -0.81642,-0.925686 -0.81642,-2.525132 0,-1.599448 0.81642,-2.525134 0.8223,-0.931546 2.21433,-0.931546 1.38029,0 2.20258,0.931546 0.82231,0.925686 0.82231,2.525134 z m -1.13948,0 q 0,-1.271356 -0.49925,-1.886528 -0.49925,-0.62103 -1.38616,-0.62103 -0.89865,0 -1.3979,0.62103 -0.49338,0.615172 -0.49338,1.886528 0,1.230343 0.49925,1.868949 0.49926,0.632749 1.39203,0.632749 0.88104,0 1.38029,-0.62689 0.50512,-0.632748 0.50512,-1.874808 z m 7.70023,2.859084 q -0.55211,0.263644 -1.05136,0.410114 -0.49338,0.146469 -1.05137,0.146469 -0.7107,0 -1.30392,-0.205057 -0.59324,-0.210916 -1.01613,-0.632748 -0.42877,-0.421832 -0.66372,-1.066298 -0.23493,-0.644465 -0.23493,-1.505706 0,-1.605306 0.88103,-2.519275 0.8869,-0.913969 2.33767,-0.913969 0.56387,0 1.10423,0.158186 0.54625,0.158188 0.9985,0.38668 V 22.6436 h -0.0588 q -0.50513,-0.392538 -1.0455,-0.603454 -0.53449,-0.210917 -1.04549,-0.210917 -0.93976,0 -1.486,0.632749 -0.54037,0.626889 -0.54037,1.845515 0,1.183473 0.52861,1.82208 0.5345,0.632749 1.49776,0.632749 0.3348,0 0.68134,-0.08788 0.34653,-0.08788 0.62259,-0.228492 0.24082,-0.123035 0.45227,-0.257786 0.21145,-0.140611 0.33479,-0.24021 h 0.0588 z m 7.37131,0.410114 h -1.45664 l -2.63135,-2.864943 -0.71658,0.679619 v 2.185324 h -1.10422 v -9.11626 h 1.10422 v 5.847062 l 3.18935,-3.275058 h 1.39203 l -3.04838,3.02313 z"
     id="text8"
     style="font-size:12.0139px;fill:#24221c;stroke:#24221c;stroke-width:1.00116"
     aria-label="Filter Block" />
</svg>
